<svg width="24" height="24" viewBox="0 0 24 24" fill="none" xmlns="http://www.w3.org/2000/svg">
<path fill-rule="evenodd" clip-rule="evenodd" d="M10.3758 4.62341L9.54896 4.90916C8.63393 5.22536 7.79789 5.7145 7.08035 6.33866L6.41917 6.91378L4.37841 6.18833L3.15248 8.31171L4.80004 9.71542L4.635 10.5737C4.54642 11.0343 4.49982 11.511 4.49982 12C4.49982 12.489 4.54643 12.9657 4.635 13.4264L4.80004 14.2846L3.15247 15.6883L4.3784 17.8117L6.4192 17.0863L7.08037 17.6614C7.79791 18.2855 8.63394 18.7746 9.54896 19.0908L10.3758 19.3766L10.7668 21.5H13.2186L13.6089 19.3801L14.438 19.0952C15.3565 18.7797 16.1957 18.29 16.9158 17.6644L17.5769 17.0901L19.607 17.8117L20.8329 15.6883L19.1967 14.2943L19.363 13.4351C19.4526 12.9717 19.4998 12.4921 19.4998 12C19.4998 11.5079 19.4526 11.0283 19.363 10.565L19.1967 9.70574L20.8329 8.31171L19.607 6.18833L17.5769 6.90997L16.9158 6.33565C16.1957 5.71005 15.3565 5.22034 14.438 4.90479L13.6089 4.61994L13.2186 2.5H10.7668L10.3758 4.62341ZM9.36692 1.81895C9.45427 1.34447 9.86794 1 10.3504 1H13.635C14.1174 1 14.5311 1.34447 14.6184 1.81895L14.9254 3.48617C16.0295 3.8655 17.0367 4.45359 17.8996 5.2033L19.4968 4.63552C19.9514 4.47392 20.4566 4.65994 20.6978 5.07776L22.3401 7.92228C22.5813 8.3401 22.4898 8.87058 22.1226 9.18347L20.8356 10.28C20.9434 10.8367 20.9998 11.4118 20.9998 12C20.9998 12.5882 20.9434 13.1633 20.8356 13.7201L22.1226 14.8166C22.4899 15.1295 22.5813 15.6599 22.3401 16.0778L20.6978 18.9223C20.4566 19.3401 19.9514 19.5261 19.4969 19.3645L17.8996 18.7967C17.0366 19.5464 16.0295 20.1345 14.9254 20.5138L14.6184 22.181C14.5311 22.6555 14.1174 23 13.635 23H10.3504C9.86794 23 9.45427 22.6555 9.36692 22.181L9.05903 20.5086C7.95908 20.1285 6.95582 19.5411 6.09593 18.7931L4.48851 19.3645C4.03392 19.5261 3.52877 19.3401 3.28754 18.9223L1.64525 16.0778C1.40403 15.6599 1.49551 15.1295 1.86275 14.8166L3.16199 13.7096C3.05555 13.1561 2.99982 12.5846 2.99982 12C2.99982 11.4154 3.05555 10.8439 3.16199 10.2904L1.86276 9.18347C1.49552 8.87058 1.40403 8.3401 1.64526 7.92228L3.28755 5.07776C3.52878 4.65994 4.03393 4.47392 4.48852 4.63552L6.0959 5.20691C6.95579 4.45893 7.95907 3.87153 9.05903 3.49142L9.36692 1.81895Z" fill="white"/>
<path fill-rule="evenodd" clip-rule="evenodd" d="M11.9998 14.5C13.3805 14.5 14.4998 13.3807 14.4998 12C14.4998 10.6193 13.3805 9.5 11.9998 9.5C10.6191 9.5 9.49982 10.6193 9.49982 12C9.49982 13.3807 10.6191 14.5 11.9998 14.5ZM11.9998 16C14.209 16 15.9998 14.2091 15.9998 12C15.9998 9.79086 14.209 8 11.9998 8C9.79068 8 7.99982 9.79086 7.99982 12C7.99982 14.2091 9.79068 16 11.9998 16Z" fill="white"/>
</svg>
