<svg width="16" height="16" viewBox="0 0 16 16" fill="none" xmlns="http://www.w3.org/2000/svg">
<path fill-rule="evenodd" clip-rule="evenodd" d="M15.3332 8.00002C15.3332 12.0501 12.0499 15.3334 7.99984 15.3334C3.94975 15.3334 0.666504 12.0501 0.666504 8.00002C0.666504 3.94993 3.94975 0.666687 7.99984 0.666687C12.0499 0.666687 15.3332 3.94993 15.3332 8.00002ZM6.99984 5.00002C6.99984 4.44774 7.44755 4.00002 7.99984 4.00002C8.55212 4.00002 8.99984 4.44774 8.99984 5.00002C8.99984 5.5523 8.55212 6.00002 7.99984 6.00002C7.44755 6.00002 6.99984 5.5523 6.99984 5.00002ZM5.99984 7.33335C5.99984 6.96516 6.29831 6.66669 6.6665 6.66669H7.99984C8.36803 6.66669 8.6665 6.96516 8.6665 7.33335V10.6667H9.33317C9.70136 10.6667 9.99984 10.9652 9.99984 11.3334C9.99984 11.7015 9.70136 12 9.33317 12H6.6665C6.29831 12 5.99984 11.7015 5.99984 11.3334C5.99984 10.9652 6.29831 10.6667 6.6665 10.6667H7.33317V8.00002H6.6665C6.29831 8.00002 5.99984 7.70154 5.99984 7.33335Z" fill="#9799AD"/>
</svg>
