<svg width="165" height="40" viewBox="0 0 165 40" fill="none" xmlns="http://www.w3.org/2000/svg">
<path fill-rule="evenodd" clip-rule="evenodd" d="M9.33333 7.16667H11.8834L12.8289 6.36255C13.3816 5.89244 14.6184 5.89244 15.1711 6.36255L16.1165 7.16667H18.6667C21.244 7.16667 23.3333 9.256 23.3333 11.8333C24.622 11.8333 25.6667 12.878 25.6667 14.1667H21V11.8333C21 10.5447 19.9553 9.5 18.6667 9.5H9.33333C8.04467 9.5 7 10.5447 7 11.8333V14.1667H2.33333C2.33333 12.878 3.378 11.8333 4.66667 11.8333C4.66667 9.256 6.756 7.16667 9.33333 7.16667ZM9.33333 28.1667H18.6667C19.9553 28.1667 21 29.2113 21 30.5V32.8333H25.6667C25.6667 31.5447 24.622 30.5 23.3333 30.5C23.3333 27.9227 21.244 25.8333 18.6667 25.8333H9.33333C6.756 25.8333 4.66667 27.9227 4.66667 30.5C3.378 30.5 2.33333 31.5447 2.33333 32.8333H7V30.5C7 29.2113 8.04467 28.1667 9.33333 28.1667ZM9.33333 21.1667L18.6667 21.1667C19.9553 21.1667 21 20.122 21 18.8333V16.5L25.6667 16.5C25.6667 17.7887 24.622 18.8333 23.3333 18.8333C23.3333 21.4107 21.244 23.5 18.6667 23.5H16.1283L15.1711 24.3141C14.6184 24.7842 13.3816 24.7842 12.8289 24.3141L11.8717 23.5H9.33333C6.756 23.5 4.66667 21.4107 4.66667 18.8333C3.378 18.8333 2.33333 17.7887 2.33333 16.5H7L7 18.8333C7 20.122 8.04467 21.1667 9.33333 21.1667ZM10.5 13C9.85567 13 9.33333 13.5223 9.33333 14.1667V16.5C9.33333 17.1443 9.85567 17.6667 10.5 17.6667C11.1443 17.6667 11.6667 17.1443 11.6667 16.5V14.1667C11.6667 13.5223 11.1443 13 10.5 13ZM16.3333 14.1667C16.3333 13.5223 16.8557 13 17.5 13C18.1443 13 18.6667 13.5223 18.6667 14.1667V16.5C18.6667 17.1443 18.1443 17.6667 17.5 17.6667C16.8557 17.6667 16.3333 17.1443 16.3333 16.5V14.1667Z" fill="white"/>
<path d="M32.5 6.04H38.76C38.9733 6.04 39.1467 6.11333 39.28 6.26C39.4133 6.40667 39.48 6.6 39.48 6.84V20.5H37.38C36.9267 20.5 36.6267 20.4267 36.48 20.28C36.3467 20.1333 36.28 19.8267 36.28 19.36V8.54H33.08C32.6933 8.54 32.5 8.22 32.5 7.58V6.04ZM40.28 6.04H43.48C43.8667 6.04 44.06 6.36 44.06 7V8.54H40.28V6.04ZM43.6083 10.5H45.8883C46.1016 10.5 46.2749 10.5733 46.4083 10.72C46.5416 10.8667 46.6083 11.06 46.6083 11.3V18.4C46.6083 18.6133 46.6549 18.7667 46.7483 18.86C46.8549 18.9533 47.0816 19 47.4283 19H48.5883V20.5H45.7883C44.3349 20.5 43.6083 19.7867 43.6083 18.36V10.5ZM52.9883 20.36C52.9883 20.4533 52.9549 20.5 52.8883 20.5H50.8683C50.2816 20.5 49.8349 20.36 49.5283 20.08C49.2349 19.7867 49.0883 19.4133 49.0883 18.96V10.5H51.3683C51.5816 10.5 51.7549 10.5733 51.8883 10.72C52.0216 10.8667 52.0883 11.06 52.0883 11.3V18.24C52.0883 18.6533 52.1749 18.8867 52.3483 18.94C52.4416 18.98 52.5683 19 52.7283 19H52.8283C52.9349 19 52.9883 19.0467 52.9883 19.14V20.36ZM56.7453 10.5H59.1453C59.2253 10.5 59.2653 10.5467 59.2653 10.64V11.86C59.2653 11.9533 59.212 12 59.1053 12H58.2053C57.8853 12 57.6986 12.06 57.6453 12.18C57.592 12.3533 57.5653 12.5467 57.5653 12.76V18.96C57.5653 19.4133 57.412 19.7867 57.1053 20.08C56.812 20.36 56.372 20.5 55.7853 20.5H54.5653V12.72C54.5653 11.9333 54.7386 11.3667 55.0853 11.02C55.4453 10.6733 55.9986 10.5 56.7453 10.5ZM60.7967 10.52H62.0167C62.6034 10.52 63.0434 10.6667 63.3367 10.96C63.6434 11.24 63.7967 11.6067 63.7967 12.06V20.5H61.5167C61.3034 20.5 61.1301 20.4267 60.9967 20.28C60.8634 20.1333 60.7967 19.94 60.7967 19.7V10.52ZM60.9367 6.26C61.0834 6.11333 61.5101 6.04 62.2167 6.04C62.9234 6.04 63.3501 6.11333 63.4967 6.26C63.6434 6.39333 63.7167 6.79333 63.7167 7.46C63.7167 8.12667 63.6367 8.53333 63.4767 8.68C63.3301 8.82667 62.9101 8.9 62.2167 8.9C61.5234 8.9 61.0967 8.82667 60.9367 8.68C60.7901 8.53333 60.7167 8.12667 60.7167 7.46C60.7167 6.79333 60.7901 6.39333 60.9367 6.26ZM69.5897 10.5H72.3897C73.843 10.5 74.5697 11.2133 74.5697 12.64V20.5H72.2897C72.0764 20.5 71.903 20.4267 71.7697 20.28C71.6364 20.1333 71.5697 19.94 71.5697 19.7V12.6C71.5697 12.3867 71.5164 12.2333 71.4097 12.14C71.3164 12.0467 71.0964 12 70.7497 12H69.5897V10.5ZM66.0897 10.5H67.3097C67.8964 10.5 68.3364 10.6467 68.6297 10.94C68.9364 11.22 69.0897 11.5867 69.0897 12.04V20.5H66.8097C66.5964 20.5 66.423 20.4267 66.2897 20.28C66.1564 20.1333 66.0897 19.94 66.0897 19.7V10.5ZM81.7114 12H80.6314C80.2847 12 80.0581 12.0467 79.9514 12.14C79.8581 12.2333 79.8114 12.3867 79.8114 12.6V18.42C79.8114 18.62 79.8581 18.7667 79.9514 18.86C80.0581 18.9533 80.2847 19 80.6314 19H81.7114V20.5H79.7714C79.2647 20.5 78.8514 20.48 78.5314 20.44C78.2114 20.3867 77.9314 20.28 77.6914 20.12C77.4514 19.96 77.2714 19.7867 77.1514 19.6C77.0314 19.4 76.9314 19.0867 76.8514 18.66C76.7581 18.06 76.7114 17.22 76.7114 16.14C76.7114 15.06 76.7181 14.3333 76.7314 13.96C76.7447 13.5733 76.7647 13.1667 76.7914 12.74C76.8314 12.3133 76.8914 12 76.9714 11.8C77.0647 11.6 77.1781 11.4 77.3114 11.2C77.4581 10.9867 77.6447 10.84 77.8714 10.76C78.3647 10.5867 78.9981 10.5 79.7714 10.5H81.7114V12ZM80.0114 21.78V22.84C80.0114 23.0667 80.0447 23.22 80.1114 23.3C80.1781 23.3933 80.3514 23.44 80.6314 23.44H81.7114V24.94H79.1914C77.7381 24.94 77.0114 24.2267 77.0114 22.8V22.2C77.0114 22 77.0314 21.8867 77.0714 21.86C77.1247 21.8333 77.1581 21.8133 77.1714 21.8C77.1847 21.8 77.2181 21.7933 77.2714 21.78C77.3381 21.78 77.3847 21.78 77.4114 21.78C78.2781 21.78 79.1447 21.78 80.0114 21.78ZM82.3114 10.5H83.5314C84.1181 10.5 84.5581 10.6467 84.8514 10.94C85.1581 11.22 85.3114 11.5867 85.3114 12.04V23.42C85.3114 23.8733 85.1581 24.24 84.8514 24.52C84.5581 24.8133 84.1181 24.96 83.5314 24.96H82.3114V10.5ZM98.3331 6.04H101.333C102.306 6.04 103.04 6.20667 103.533 6.54C104.04 6.87333 104.293 7.45333 104.293 8.28V19.36C104.293 19.8267 104.22 20.1333 104.073 20.28C103.94 20.4267 103.646 20.5 103.193 20.5H101.093V8.52C101.093 8.30667 101.06 8.16 100.993 8.08C100.94 7.98667 100.793 7.94 100.553 7.94H98.3331V6.04ZM91.0731 20.5H88.9731C88.5198 20.5 88.2198 20.4267 88.0731 20.28C87.9398 20.1333 87.8731 19.8267 87.8731 19.36V6.84C87.8731 6.6 87.9398 6.40667 88.0731 6.26C88.2065 6.11333 88.3798 6.04 88.5931 6.04H91.0731V20.5ZM91.8931 6.04H97.0131C97.2265 6.04 97.3998 6.11333 97.5331 6.26C97.6665 6.40667 97.7331 6.6 97.7331 6.84V19.04H95.6531C95.2531 19.04 94.9665 18.9333 94.7931 18.72C94.6198 18.4933 94.5331 18.1333 94.5331 17.64V8.52C94.5331 8.30667 94.4998 8.16 94.4331 8.08C94.3798 7.98667 94.2331 7.94 93.9931 7.94H91.8931V6.04ZM111.711 12H110.631C110.218 12 109.985 12.0733 109.931 12.22C109.851 12.3933 109.811 12.64 109.811 12.96V18.04C109.811 18.0667 109.811 18.1467 109.811 18.28C109.811 18.4133 109.825 18.5267 109.851 18.62C109.905 18.8733 110.165 19 110.631 19H111.711V20.5H109.771C109.265 20.5 108.851 20.48 108.531 20.44C108.211 20.3867 107.931 20.28 107.691 20.12C107.451 19.96 107.271 19.7867 107.151 19.6C107.031 19.4 106.931 19.0867 106.851 18.66C106.758 18.06 106.711 17.22 106.711 16.14C106.711 15.06 106.718 14.3333 106.731 13.96C106.745 13.5733 106.765 13.1667 106.791 12.74C106.831 12.3133 106.891 12 106.971 11.8C107.065 11.6 107.178 11.4 107.311 11.2C107.458 10.9867 107.645 10.84 107.871 10.76C108.365 10.5867 108.998 10.5 109.771 10.5H111.711V12ZM116.211 20.36C116.211 20.4533 116.185 20.5 116.131 20.5H114.491C113.745 20.5 113.191 20.3267 112.831 19.98C112.485 19.6333 112.311 19.0667 112.311 18.28V10.5H113.131C113.971 10.5 114.545 10.7 114.851 11.1C115.158 11.4867 115.311 12 115.311 12.64V18.24C115.311 18.6533 115.398 18.8867 115.571 18.94C115.665 18.98 115.791 19 115.951 19H116.051C116.158 19 116.211 19.0467 116.211 19.14V20.36ZM120.749 20.5H120.709C119.389 20.5 118.576 20.2733 118.269 19.82C118.122 19.6067 118.002 19.4 117.909 19.2C117.829 19 117.776 18.6867 117.749 18.26C117.682 17.4867 117.649 16.6267 117.649 15.68C117.649 14.7333 117.656 14.0533 117.669 13.64C117.682 13.2133 117.722 12.7867 117.789 12.36C117.869 11.92 117.969 11.6067 118.089 11.42C118.209 11.22 118.389 11.04 118.629 10.88C118.869 10.72 119.149 10.62 119.469 10.58C119.789 10.5267 120.202 10.5 120.709 10.5H120.749V20.5ZM123.069 17.34C123.962 17.34 124.642 17.34 125.109 17.34C125.576 17.34 125.816 17.3467 125.829 17.36C125.842 17.36 125.862 17.3667 125.889 17.38C125.929 17.38 125.956 17.3867 125.969 17.4C125.982 17.4133 125.996 17.4333 126.009 17.46C126.022 17.4733 126.029 17.5 126.029 17.54C126.056 17.6333 126.069 17.7067 126.069 17.76V18.36C126.069 19.7867 125.342 20.5 123.889 20.5H121.369V19H122.449C122.729 19 122.902 18.96 122.969 18.88C123.036 18.7867 123.069 18.6267 123.069 18.4V17.34ZM121.369 10.5H123.889C125.342 10.5 126.069 11.2133 126.069 12.64V14C125.176 14 124.496 14 124.029 14C123.562 14 123.322 14 123.309 14C123.296 13.9867 123.269 13.98 123.229 13.98C123.202 13.9667 123.182 13.9533 123.169 13.94C123.156 13.9267 123.142 13.9133 123.129 13.9C123.116 13.8733 123.109 13.8467 123.109 13.82C123.082 13.7133 123.069 13.6333 123.069 13.58V12.6C123.069 12.3733 123.036 12.22 122.969 12.14C122.902 12.0467 122.729 12 122.449 12H121.369V10.5ZM131.582 10.5H134.382C135.835 10.5 136.562 11.2133 136.562 12.64V20.5H134.282C134.069 20.5 133.895 20.4267 133.762 20.28C133.629 20.1333 133.562 19.94 133.562 19.7V12.6C133.562 12.3867 133.509 12.2333 133.402 12.14C133.309 12.0467 133.089 12 132.742 12H131.582V10.5ZM128.082 6.04H129.302C129.889 6.04 130.329 6.18667 130.622 6.48C130.929 6.76 131.082 7.12667 131.082 7.58V20.5H128.802C128.589 20.5 128.415 20.4267 128.282 20.28C128.149 20.1333 128.082 19.94 128.082 19.7V6.04ZM138.844 10.52H140.064C140.65 10.52 141.09 10.6667 141.384 10.96C141.69 11.24 141.844 11.6067 141.844 12.06V20.5H139.564C139.35 20.5 139.177 20.4267 139.044 20.28C138.91 20.1333 138.844 19.94 138.844 19.7V10.52ZM138.984 6.26C139.13 6.11333 139.557 6.04 140.264 6.04C140.97 6.04 141.397 6.11333 141.544 6.26C141.69 6.39333 141.764 6.79333 141.764 7.46C141.764 8.12667 141.684 8.53333 141.524 8.68C141.377 8.82667 140.957 8.9 140.264 8.9C139.57 8.9 139.144 8.82667 138.984 8.68C138.837 8.53333 138.764 8.12667 138.764 7.46C138.764 6.79333 138.837 6.39333 138.984 6.26ZM147.637 10.5H150.437C151.89 10.5 152.617 11.2133 152.617 12.64V20.5H150.337C150.123 20.5 149.95 20.4267 149.817 20.28C149.683 20.1333 149.617 19.94 149.617 19.7V12.6C149.617 12.3867 149.563 12.2333 149.457 12.14C149.363 12.0467 149.143 12 148.797 12H147.637V10.5ZM144.137 10.5H145.357C145.943 10.5 146.383 10.6467 146.677 10.94C146.983 11.22 147.137 11.5867 147.137 12.04V20.5H144.857C144.643 20.5 144.47 20.4267 144.337 20.28C144.203 20.1333 144.137 19.94 144.137 19.7V10.5ZM157.858 20.5H157.818C156.498 20.5 155.685 20.2733 155.378 19.82C155.232 19.6067 155.112 19.4 155.018 19.2C154.938 19 154.885 18.6867 154.858 18.26C154.792 17.4867 154.758 16.6267 154.758 15.68C154.758 14.7333 154.765 14.0533 154.778 13.64C154.792 13.2133 154.832 12.7867 154.898 12.36C154.978 11.92 155.078 11.6067 155.198 11.42C155.318 11.22 155.498 11.04 155.738 10.88C155.978 10.72 156.258 10.62 156.578 10.58C156.898 10.5267 157.312 10.5 157.818 10.5H157.858V20.5ZM163.178 17.34V18.36C163.178 19.7867 162.452 20.5 160.998 20.5H158.478V19H159.558C159.838 19 160.012 18.96 160.078 18.88C160.145 18.7867 160.178 18.6267 160.178 18.4V17.76C160.178 17.56 160.198 17.4467 160.238 17.42C160.292 17.3933 160.325 17.38 160.338 17.38C160.352 17.3667 160.385 17.36 160.438 17.36C160.505 17.3467 160.552 17.34 160.578 17.34C161.445 17.34 162.312 17.34 163.178 17.34ZM158.478 10.5H160.798C161.718 10.5 162.345 10.68 162.678 11.04C163.012 11.4 163.178 11.9333 163.178 12.64V14.4C163.178 15.6 162.525 16.2 161.218 16.2H158.278V14.7H159.358C159.678 14.7 159.892 14.66 159.998 14.58C160.118 14.5 160.178 14.3467 160.178 14.12V12.6C160.178 12.3733 160.145 12.22 160.078 12.14C160.012 12.0467 159.838 12 159.558 12H158.478V10.5Z" fill="white"/>
<path d="M37.376 32.204C37.768 32.444 38.076 32.74 38.3 33.092C38.524 33.444 38.636 33.84 38.636 34.28C38.636 34.776 38.496 35.22 38.216 35.612C37.944 36.004 37.548 36.284 37.028 36.452C36.684 36.564 36.216 36.62 35.624 36.62C34.776 36.62 34.176 36.6 33.824 36.56L33.2 36.488V28.16H35.84C36.208 28.16 36.536 28.212 36.824 28.316C37.28 28.476 37.632 28.732 37.88 29.084C38.136 29.436 38.264 29.852 38.264 30.332C38.264 30.7 38.188 31.024 38.036 31.304C37.892 31.584 37.664 31.8 37.352 31.952C37.272 31.992 37.152 32.036 36.992 32.084C37.192 32.132 37.32 32.172 37.376 32.204ZM33.92 28.832V31.82H35.828C36.34 31.82 36.752 31.688 37.064 31.424C37.384 31.16 37.544 30.78 37.544 30.284C37.544 29.844 37.408 29.504 37.136 29.264C36.872 29.016 36.496 28.872 36.008 28.832H33.92ZM35.744 35.96C36.424 35.96 36.956 35.816 37.34 35.528C37.724 35.24 37.916 34.824 37.916 34.28C37.916 33.752 37.74 33.32 37.388 32.984C37.036 32.648 36.544 32.48 35.912 32.48H33.92V35.9L34.94 35.936L35.744 35.96ZM41.9581 36.596C41.2861 36.596 40.7741 36.428 40.4221 36.092C40.0781 35.756 39.9061 35.276 39.9061 34.652V30.5H40.6261V34.52C40.6261 34.968 40.7301 35.32 40.9381 35.576C41.1461 35.824 41.4981 35.948 41.9941 35.948C42.4101 35.948 42.7541 35.848 43.0261 35.648C43.3061 35.44 43.5981 35.128 43.9021 34.712V30.5H44.6221V34.736C44.6221 35.36 44.7781 35.832 45.0901 36.152L44.6461 36.584C44.4701 36.456 44.3221 36.292 44.2021 36.092C44.0901 35.884 44.0141 35.676 43.9741 35.468C43.7181 35.868 43.4221 36.156 43.0861 36.332C42.7581 36.508 42.3821 36.596 41.9581 36.596ZM46.6123 30.488H47.3323V36.5H46.6123V30.488ZM46.9483 29.72C46.8123 29.72 46.6923 29.672 46.5883 29.576C46.4923 29.472 46.4443 29.352 46.4443 29.216C46.4443 29.072 46.4923 28.952 46.5883 28.856C46.6923 28.752 46.8123 28.7 46.9483 28.7C47.0923 28.7 47.2123 28.752 47.3083 28.856C47.4123 28.952 47.4643 29.072 47.4643 29.216C47.4643 29.352 47.4123 29.472 47.3083 29.576C47.2123 29.672 47.0923 29.72 46.9483 29.72ZM49.2491 27.788H49.9691V36.5H49.2491V27.788ZM53.9978 36.62C53.4618 36.62 53.0018 36.484 52.6178 36.212C52.2338 35.932 51.9418 35.56 51.7418 35.096C51.5418 34.624 51.4418 34.108 51.4418 33.548C51.4418 32.94 51.5538 32.4 51.7778 31.928C52.0098 31.448 52.3458 31.076 52.7858 30.812C53.2258 30.54 53.7498 30.404 54.3578 30.404C54.5418 30.404 54.7738 30.416 55.0538 30.44C55.3418 30.456 55.5938 30.48 55.8098 30.512V27.776H56.4698V34.772C56.4698 35.388 56.6258 35.864 56.9378 36.2L56.5298 36.596C56.2178 36.364 56.0058 36.02 55.8938 35.564C55.7098 35.924 55.4458 36.192 55.1018 36.368C54.7658 36.536 54.3978 36.62 53.9978 36.62ZM54.0338 35.996C54.3938 35.996 54.7138 35.908 54.9938 35.732C55.2818 35.556 55.4978 35.316 55.6418 35.012C55.7538 34.788 55.8098 34.532 55.8098 34.244V31.148C55.3698 31.092 55.0498 31.06 54.8498 31.052C54.6578 31.036 54.4578 31.028 54.2498 31.028C53.8098 31.028 53.4298 31.136 53.1098 31.352C52.7898 31.568 52.5458 31.868 52.3778 32.252C52.2098 32.628 52.1258 33.048 52.1258 33.512C52.1258 34.208 52.2938 34.796 52.6298 35.276C52.9658 35.756 53.4338 35.996 54.0338 35.996ZM64.3198 36.62C63.7518 36.62 63.2438 36.488 62.7958 36.224C62.3558 35.96 62.0118 35.592 61.7638 35.12C61.5158 34.648 61.3918 34.112 61.3918 33.512C61.3918 32.912 61.5158 32.376 61.7638 31.904C62.0198 31.424 62.3678 31.052 62.8078 30.788C63.2558 30.516 63.7638 30.38 64.3318 30.38C64.8918 30.38 65.3918 30.516 65.8318 30.788C66.2798 31.052 66.6278 31.42 66.8758 31.892C67.1318 32.364 67.2598 32.9 67.2598 33.5C67.2598 34.1 67.1318 34.636 66.8758 35.108C66.6278 35.58 66.2798 35.952 65.8318 36.224C65.3918 36.488 64.8878 36.62 64.3198 36.62ZM64.3318 35.972C64.9958 35.972 65.5278 35.744 65.9278 35.288C66.3358 34.832 66.5398 34.236 66.5398 33.5C66.5398 33.012 66.4478 32.584 66.2638 32.216C66.0798 31.84 65.8198 31.548 65.4838 31.34C65.1478 31.132 64.7638 31.028 64.3318 31.028C63.8918 31.028 63.5038 31.132 63.1678 31.34C62.8318 31.548 62.5718 31.844 62.3878 32.228C62.2038 32.604 62.1118 33.032 62.1118 33.512C62.1118 33.992 62.2038 34.42 62.3878 34.796C62.5718 35.164 62.8318 35.452 63.1678 35.66C63.5038 35.868 63.8918 35.972 64.3318 35.972ZM68.7153 32.264C68.7153 31.648 68.5513 31.176 68.2233 30.848L68.6793 30.404C69.0313 30.652 69.2553 31.012 69.3513 31.484C69.6153 31.108 69.9113 30.832 70.2393 30.656C70.5673 30.472 70.9633 30.38 71.4273 30.38C72.0513 30.38 72.5353 30.548 72.8793 30.884C73.2313 31.22 73.4033 31.704 73.3953 32.336L73.3593 36.5H72.6633L72.6753 32.468C72.6753 31.508 72.2393 31.028 71.3673 31.028C70.9593 31.028 70.6113 31.128 70.3233 31.328C70.0433 31.52 69.7473 31.828 69.4353 32.252V36.5H68.7153V32.264ZM82.3017 36.704C81.5337 36.704 80.8377 36.516 80.2137 36.14C79.5977 35.756 79.1137 35.24 78.7617 34.592C78.4097 33.944 78.2337 33.232 78.2337 32.456C78.2337 31.664 78.4177 30.928 78.7857 30.248C79.1617 29.568 79.6617 29.028 80.2857 28.628C80.9177 28.22 81.6057 28.016 82.3497 28.016C83.0777 28.016 83.7417 28.18 84.3417 28.508C84.9417 28.828 85.2337 29.412 85.2177 30.26H84.2697C84.2937 29.756 84.0937 29.408 83.6697 29.216C83.2537 29.024 82.7937 28.928 82.2897 28.928C81.7297 28.928 81.2137 29.096 80.7417 29.432C80.2697 29.76 79.8937 30.2 79.6137 30.752C79.3337 31.296 79.1937 31.876 79.1937 32.492C79.1937 33.084 79.3257 33.632 79.5897 34.136C79.8617 34.64 80.2337 35.044 80.7057 35.348C81.1777 35.644 81.7137 35.792 82.3137 35.792C82.8737 35.792 83.3897 35.664 83.8617 35.408C84.3417 35.152 84.7217 34.788 85.0017 34.316L85.8057 34.868C85.4297 35.476 84.9257 35.936 84.2937 36.248C83.6697 36.552 83.0057 36.704 82.3017 36.704ZM89.5383 30.296C89.7703 30.296 90.0463 30.336 90.3663 30.416L90.3423 31.364C90.0223 31.276 89.7623 31.232 89.5623 31.232C89.1863 31.232 88.8943 31.32 88.6863 31.496C88.4463 31.688 88.2383 31.944 88.0623 32.264V36.512H87.0783V32.264C87.0783 31.64 86.9103 31.184 86.5743 30.896L87.2343 30.284C87.3543 30.356 87.4743 30.464 87.5943 30.608C87.7223 30.752 87.8263 30.916 87.9063 31.1C88.0823 30.876 88.2623 30.704 88.4463 30.584C88.7503 30.392 89.1143 30.296 89.5383 30.296ZM93.7797 36.62C93.2117 36.62 92.6997 36.484 92.2437 36.212C91.7957 35.94 91.4437 35.568 91.1877 35.096C90.9317 34.616 90.8037 34.076 90.8037 33.476C90.8037 32.876 90.9317 32.336 91.1877 31.856C91.4517 31.368 91.8077 30.988 92.2557 30.716C92.7117 30.436 93.2237 30.296 93.7917 30.296C94.3597 30.296 94.8677 30.432 95.3157 30.704C95.7717 30.976 96.1277 31.356 96.3837 31.844C96.6397 32.324 96.7677 32.864 96.7677 33.464C96.7677 34.064 96.6397 34.604 96.3837 35.084C96.1277 35.564 95.7717 35.94 95.3157 36.212C94.8597 36.484 94.3477 36.62 93.7797 36.62ZM93.7917 35.732C94.3917 35.732 94.8717 35.524 95.2317 35.108C95.5997 34.692 95.7837 34.144 95.7837 33.464C95.7837 32.776 95.5997 32.224 95.2317 31.808C94.8717 31.392 94.3917 31.184 93.7917 31.184C93.3997 31.184 93.0517 31.28 92.7477 31.472C92.4437 31.664 92.2077 31.932 92.0397 32.276C91.8717 32.62 91.7877 33.016 91.7877 33.464C91.7877 34.144 91.9717 34.692 92.3397 35.108C92.7077 35.524 93.1917 35.732 93.7917 35.732ZM98.0934 32.252C98.0934 31.972 98.0534 31.72 97.9734 31.496C97.9014 31.272 97.7614 31.068 97.5534 30.884L98.1894 30.284C98.5174 30.476 98.7614 30.796 98.9214 31.244C99.4414 30.62 100.093 30.308 100.877 30.308C101.509 30.308 102.009 30.48 102.377 30.824C102.753 31.168 102.941 31.668 102.941 32.324V36.512L101.957 36.524V32.456C101.957 32.064 101.873 31.756 101.705 31.532C101.537 31.308 101.241 31.196 100.817 31.196C100.449 31.196 100.137 31.284 99.8814 31.46C99.6334 31.628 99.3654 31.904 99.0774 32.288V36.512H98.0934V32.252ZM107.174 36.62C106.606 36.62 106.094 36.484 105.638 36.212C105.19 35.94 104.838 35.568 104.582 35.096C104.326 34.616 104.198 34.076 104.198 33.476C104.198 32.876 104.326 32.336 104.582 31.856C104.846 31.368 105.202 30.988 105.65 30.716C106.106 30.436 106.618 30.296 107.186 30.296C107.754 30.296 108.262 30.432 108.71 30.704C109.166 30.976 109.522 31.356 109.778 31.844C110.034 32.324 110.162 32.864 110.162 33.464C110.162 34.064 110.034 34.604 109.778 35.084C109.522 35.564 109.166 35.94 108.71 36.212C108.254 36.484 107.742 36.62 107.174 36.62ZM107.186 35.732C107.786 35.732 108.266 35.524 108.626 35.108C108.994 34.692 109.178 34.144 109.178 33.464C109.178 32.776 108.994 32.224 108.626 31.808C108.266 31.392 107.786 31.184 107.186 31.184C106.794 31.184 106.446 31.28 106.142 31.472C105.838 31.664 105.602 31.932 105.434 32.276C105.266 32.62 105.182 33.016 105.182 33.464C105.182 34.144 105.366 34.692 105.734 35.108C106.102 35.524 106.586 35.732 107.186 35.732ZM113.192 36.62C112.312 36.62 111.536 36.284 110.864 35.612L111.428 34.952C111.732 35.216 112.02 35.412 112.292 35.54C112.564 35.66 112.852 35.72 113.156 35.72C113.548 35.72 113.856 35.636 114.08 35.468C114.312 35.292 114.428 35.052 114.428 34.748C114.428 34.564 114.38 34.416 114.284 34.304C114.196 34.192 114.064 34.096 113.888 34.016C113.72 33.928 113.436 33.804 113.036 33.644C112.596 33.468 112.252 33.316 112.004 33.188C111.764 33.052 111.572 32.884 111.428 32.684C111.284 32.476 111.212 32.22 111.212 31.916C111.212 31.42 111.388 31.02 111.74 30.716C112.092 30.412 112.548 30.26 113.108 30.26C113.436 30.26 113.764 30.316 114.092 30.428C114.428 30.532 114.692 30.668 114.884 30.836L114.464 31.544C114.104 31.28 113.684 31.148 113.204 31.148C112.9 31.148 112.656 31.212 112.472 31.34C112.296 31.46 112.208 31.628 112.208 31.844C112.208 32.068 112.296 32.244 112.472 32.372C112.656 32.492 112.968 32.64 113.408 32.816C113.904 33.016 114.292 33.196 114.572 33.356C114.852 33.516 115.064 33.704 115.208 33.92C115.352 34.128 115.424 34.392 115.424 34.712C115.424 35.28 115.216 35.74 114.8 36.092C114.384 36.444 113.848 36.62 113.192 36.62Z" fill="white"/>
</svg>
