<svg width="137" height="66" viewBox="0 0 137 66" fill="none" xmlns="http://www.w3.org/2000/svg">
<path d="M33 62.5081C49.2969 62.5081 62.5082 49.2968 62.5082 32.9999C62.5082 16.703 49.2969 3.4917 33 3.4917C16.7031 3.4917 3.49182 16.703 3.49182 32.9999C3.49182 49.2968 16.7031 62.5081 33 62.5081Z" fill="#FCEAC5" stroke="#003864" stroke-width="5" stroke-miterlimit="10"/>
<path d="M61.623 32.9588C61.6603 48.7791 48.8361 61.6231 32.9941 61.6231C17.2839 61.6231 4.44394 48.8362 4.37705 33.189C4.30033 17.3726 17.0026 4.4598 32.7895 4.37717C36.5644 4.34261 40.3087 5.05644 43.8061 6.47744C47.3035 7.89844 50.4846 9.99843 53.1657 12.6561C55.8467 15.3137 57.9745 18.4763 59.4261 21.9611C60.8778 25.4459 61.6244 29.1838 61.623 32.9588ZM21.421 58.1155C21.421 57.9287 21.2774 57.8559 21.1771 57.7614C19.9534 56.5988 18.7613 55.4008 17.4866 54.2952C16.8846 53.7719 16.7646 53.2841 16.9121 52.5149C17.4393 49.7608 17.88 46.9831 18.3502 44.2132C18.36 44.1252 18.3906 44.0407 18.4396 43.9668C18.4885 43.893 18.5543 43.8318 18.6315 43.7883C20.4452 42.6827 22.2564 41.568 24.0649 40.4441C24.0894 40.4212 24.1186 40.4042 24.1506 40.3942C24.1825 40.3843 24.2163 40.3817 24.2494 40.3866C24.2825 40.3915 24.314 40.4038 24.3417 40.4226C24.3694 40.4414 24.3924 40.4662 24.4092 40.4952C24.7751 40.9123 25.1528 41.3195 25.5266 41.7306C27.4269 43.829 29.3285 45.9273 31.2315 48.0257C31.4046 48.2224 31.5226 48.3424 31.2728 48.6159C29.7148 50.2742 28.1823 51.9601 26.64 53.6283C25.2289 55.1549 23.8157 56.6854 22.4007 58.2198C22.2236 58.4165 22.2256 58.4913 22.4813 58.5778C22.9182 58.7192 23.3476 58.8827 23.7679 59.0677C23.8752 59.1316 24.003 59.152 24.1248 59.1245C24.2467 59.0971 24.3534 59.0239 24.423 58.9201C26.0951 57.1044 27.8557 55.3791 29.5043 53.5378C30.7259 52.1765 31.979 50.8467 33.2046 49.4932C33.3777 49.2965 33.4544 49.2867 33.6315 49.4932C36.4472 52.6237 39.2669 55.7509 42.0905 58.8749C42.1378 58.944 42.2093 58.9929 42.2909 59.0118C42.3725 59.0308 42.4582 59.0184 42.5312 58.9772C43.0328 58.7667 43.5344 58.5582 44.0439 58.3693C44.2997 58.2749 44.3587 58.2159 44.1403 57.9759C41.1318 54.7457 38.1292 51.5116 35.1325 48.2736C34.9613 48.0906 34.9889 47.9942 35.1502 47.8368C35.5652 47.4434 35.9646 47.0205 36.3698 46.6093C38.3567 44.5752 40.3423 42.5424 42.3266 40.5109C42.3465 40.4807 42.3729 40.4552 42.4037 40.4362C42.4346 40.4172 42.4693 40.4052 42.5053 40.4011C42.5413 40.397 42.5778 40.4008 42.6122 40.4123C42.6466 40.4238 42.678 40.4427 42.7043 40.4677C44.463 41.6047 46.2243 42.7365 47.9882 43.8631C48.0569 43.9007 48.1161 43.9536 48.1611 44.0178C48.2061 44.0819 48.2358 44.1555 48.2479 44.2329C48.7725 47.1431 49.3062 50.0519 49.8492 52.9595C49.8672 53.0299 49.8653 53.104 49.8438 53.1734C49.8223 53.2429 49.7819 53.305 49.7272 53.3529C48.8223 54.2146 47.9115 55.0742 47.0302 55.9595C46.4144 56.5791 45.84 57.2382 45.4407 57.6709C53.4315 54.0119 61.6112 44.0008 60.5705 30.7595C60.0516 24.3515 57.3167 18.3244 52.8359 13.7143C48.3551 9.10411 42.4083 6.19882 36.0177 5.49781C29.6271 4.79679 23.1919 6.34384 17.8182 9.87303C12.4446 13.4022 8.46814 18.6931 6.57246 24.8362C2.70689 37.2513 8.11476 51.9247 21.421 58.1155ZM17.4866 53.2447C17.4858 53.2876 17.4954 53.3301 17.5146 53.3684C17.5337 53.4068 17.5619 53.4399 17.5967 53.465C17.7403 53.5909 17.878 53.7247 18.0177 53.8585C19.3082 55.0847 20.5974 56.3103 21.8853 57.5352C22.0033 57.6473 22.0702 57.6336 22.1705 57.5234C23.0125 56.6067 23.8623 55.6939 24.7043 54.7693C25.6269 53.768 26.5495 52.7686 27.4584 51.7575C28.442 50.6755 29.4767 49.6526 30.3797 48.5037C30.4137 48.4745 30.4411 48.4383 30.4598 48.3976C30.4786 48.3568 30.4883 48.3125 30.4883 48.2677C30.4883 48.2228 30.4786 48.1785 30.4598 48.1377C30.4411 48.097 30.4137 48.0608 30.3797 48.0316C29.8249 47.4283 29.2734 46.8218 28.7253 46.2119C27.2734 44.608 25.8236 43.0027 24.3757 41.3962C24.3518 41.3556 24.3192 41.3208 24.2803 41.2941C24.2414 41.2675 24.1971 41.2497 24.1506 41.242C24.1041 41.2344 24.0565 41.2369 24.0111 41.2496C23.9657 41.2623 23.9236 41.2848 23.8879 41.3155C22.5246 42.1673 21.1672 43.0309 19.7764 43.8336C19.5193 43.9578 19.2984 44.1461 19.1351 44.3804C18.9718 44.6147 18.8715 44.887 18.8439 45.1713C18.6 46.869 18.2774 48.5411 17.9862 50.2132C17.8839 50.8034 17.7679 51.4054 17.6656 52.0034C17.5948 52.4205 17.5397 52.8336 17.4787 53.2447H17.4866ZM49.2216 52.8926C49.2216 52.8395 49.2079 52.808 49.202 52.7765C48.7089 50.088 48.2177 47.3995 47.7285 44.7109C47.7129 44.5965 47.671 44.4873 47.6061 44.3918C47.5413 44.2962 47.4553 44.2169 47.3548 44.1601C45.8774 43.2218 44.4039 42.2814 42.9325 41.3254C42.6748 41.1562 42.4957 41.1286 42.301 41.3942C42.1802 41.5433 42.0487 41.6833 41.9075 41.8132C39.9403 43.8277 37.9672 45.8414 35.9882 47.8545C35.8485 47.9962 35.7915 48.0886 35.9646 48.2677C38.7475 51.2578 41.5266 54.2546 44.3016 57.2578C44.4826 57.4546 44.583 57.488 44.7934 57.2814C46.2177 55.8827 47.6557 54.4978 49.0898 53.1109C49.1508 53.0441 49.2295 52.987 49.2138 52.8926H49.2216ZM37.9062 60.2067L38.0616 60.1831C39.1648 59.9765 40.2551 59.7066 41.3272 59.3746C41.5495 59.3057 41.6361 59.2526 41.4275 59.0264C40.4577 57.9739 39.5095 56.9037 38.5515 55.8434C36.9541 54.0742 35.358 52.3037 33.7633 50.5319C33.6177 50.3686 33.5272 50.3352 33.3698 50.5064C32.3574 51.5791 31.339 52.6447 30.3148 53.7031C30.1653 53.8585 30.181 53.9529 30.3148 54.0965C30.8026 54.6493 31.2807 55.21 31.7607 55.7667C31.8504 55.8735 31.9654 55.9562 32.0954 56.007C32.2253 56.0579 32.3659 56.0754 32.5043 56.0578C33.0472 56.0165 33.5921 55.9929 34.1351 55.9437C34.2281 55.9299 34.3232 55.9433 34.4088 55.9824C34.4943 56.0215 34.5667 56.0846 34.6171 56.1641C35.6223 57.4388 36.6374 58.7037 37.6485 59.9726C37.7233 60.0906 37.7921 60.2283 37.9062 60.2067ZM32.9666 60.6395C34.2707 60.6425 35.5734 60.5557 36.8656 60.3798C37.0859 60.3503 37.1233 60.3011 36.9777 60.1201C36.0675 58.9896 35.16 57.8559 34.2551 56.7188C34.217 56.6685 34.1659 56.6294 34.1074 56.6059C34.0488 56.5823 33.985 56.5751 33.9226 56.585C33.421 56.6146 32.9193 56.6362 32.4177 56.6657C32.1984 56.6831 31.9782 56.6456 31.7769 56.5567C31.5757 56.4677 31.3997 56.3301 31.2649 56.1562C30.8026 55.6093 30.3285 55.0742 29.8662 54.5273C29.7502 54.3877 29.6695 54.366 29.5416 54.5116C29.3803 54.6965 29.2052 54.8696 29.0361 55.0467C27.7089 56.4355 26.3797 57.8244 25.0485 59.2132C24.8872 59.3805 24.8793 59.4316 25.1292 59.5064C27.6729 60.2618 30.313 60.6435 32.9666 60.6395Z" fill="#FCEAC5"/>
<path d="M21.421 58.1155C8.11474 51.9247 2.70687 37.2513 6.57245 24.8362C8.46858 18.6962 12.4435 13.408 17.8144 9.87992C23.1854 6.35182 29.6172 4.80396 36.0053 5.50218C42.3933 6.2004 48.3389 9.10114 52.8209 13.7062C57.3029 18.3112 60.0416 24.3332 60.5665 30.7378C61.6072 43.9791 53.4275 53.9903 45.4367 57.6493C45.8302 57.2165 46.4105 56.5575 47.0262 55.9378C47.9075 55.0526 48.8183 54.1929 49.7233 53.3313C49.778 53.2833 49.8183 53.2212 49.8398 53.1518C49.8614 53.0823 49.8632 53.0083 49.8452 52.9378C49.3036 50.0368 48.7705 47.1313 48.2459 44.2211C48.2338 44.1437 48.2041 44.0701 48.1591 44.0059C48.1141 43.9418 48.0549 43.8889 47.9862 43.8513C46.221 42.7247 44.4597 41.5929 42.7023 40.4558C42.676 40.4309 42.6446 40.412 42.6102 40.4005C42.5758 40.389 42.5393 40.3851 42.5033 40.3893C42.4673 40.3934 42.4326 40.4054 42.4018 40.4244C42.3709 40.4433 42.3445 40.4689 42.3246 40.4991C40.3416 42.5372 38.356 44.5699 36.3679 46.5975C35.9626 47.0086 35.5633 47.4257 35.1482 47.825C34.9869 47.9824 34.9515 48.0788 35.1305 48.2617C38.1364 51.4945 41.139 54.7286 44.1383 57.964C44.3567 58.2001 44.2977 58.2591 44.042 58.3575C43.5324 58.5542 43.0308 58.7509 42.5292 58.9653C42.4562 59.0066 42.3705 59.019 42.2889 59C42.2073 58.9811 42.1358 58.9322 42.0885 58.8631C39.2715 55.7326 36.4518 52.6054 33.6295 49.4814C33.4524 49.2847 33.3757 49.2985 33.2026 49.4814C31.977 50.8349 30.7239 52.1647 29.5023 53.526C27.8538 55.3614 26.0931 57.0926 24.421 58.9083C24.3514 59.0121 24.2447 59.0853 24.1229 59.1127C24.001 59.1402 23.8732 59.1198 23.7659 59.0558C23.3441 58.8747 22.9134 58.7151 22.4754 58.5778C22.2197 58.4912 22.2177 58.4106 22.3947 58.2198C23.8124 56.6932 25.2249 55.1614 26.6321 53.6244C28.1744 51.9503 29.7069 50.2801 31.2649 48.6119C31.5147 48.3463 31.3967 48.2185 31.2236 48.0217C29.322 45.9234 27.4203 43.825 25.5187 41.7267C25.1449 41.3155 24.7672 40.9083 24.4013 40.4913C24.3846 40.4623 24.3615 40.4375 24.3338 40.4187C24.3062 40.3999 24.2746 40.3875 24.2415 40.3826C24.2084 40.3777 24.1746 40.3803 24.1427 40.3903C24.1108 40.4002 24.0815 40.4173 24.057 40.4401C22.2498 41.5575 20.4387 42.6722 18.6236 43.7844C18.5462 43.8284 18.4805 43.8903 18.4319 43.9649C18.3833 44.0395 18.3533 44.1247 18.3442 44.2132C17.8741 46.9831 17.4334 49.7568 16.9062 52.5149C16.7587 53.284 16.8787 53.7719 17.4806 54.2952C18.7554 55.4008 19.9475 56.5988 21.1711 57.7614C21.2774 57.8558 21.4269 57.9286 21.421 58.1155ZM15.1121 52.3103C15.2105 51.785 15.3088 51.2932 15.3954 50.8014C15.8833 48.1549 16.3685 45.5083 16.8511 42.8617C16.8584 42.7886 16.8829 42.7182 16.9225 42.6563C16.9622 42.5945 17.0159 42.5428 17.0793 42.5057C19.1121 41.2847 21.1449 40.0591 23.1777 38.829L27.9797 35.9293C28.0579 35.8979 28.1249 35.8434 28.1716 35.7732C28.2183 35.7029 28.2426 35.6202 28.2413 35.5358C28.2295 34.3929 28.2315 33.248 28.2413 32.1031C28.2413 31.9378 28.1961 31.8749 28.0269 31.8808C27.6846 31.8926 27.3403 31.8808 27 31.8808C26.9267 31.8874 26.8531 31.8723 26.7883 31.8373C26.7236 31.8023 26.6706 31.749 26.6361 31.684C26.0577 30.8381 25.4734 29.9962 24.8656 29.164C24.7348 28.9954 24.6654 28.7872 24.6688 28.5739C24.6688 25.1942 24.6688 21.8145 24.6688 18.4349C24.6737 18.2336 24.6248 18.0346 24.5272 17.8585C23.9193 16.7647 23.3233 15.667 22.7193 14.5732C22.6286 14.4274 22.5744 14.2618 22.5614 14.0906C22.5483 13.9193 22.5769 13.7475 22.6446 13.5896C23.0469 12.6304 23.2161 11.5895 23.1383 10.5522C23.1128 10.1745 23.1934 10.1253 23.5515 10.2532C24.2852 10.5149 25.0111 10.7981 25.7469 11.0558C26.4826 11.3135 27.1593 11.6637 27.9521 11.6637C30.0492 11.6637 32.1462 11.6775 34.2472 11.6814C34.4605 11.679 34.6698 11.7392 34.8492 11.8545C37.5101 13.5581 40.1698 15.2572 42.8282 16.9516C42.9063 16.994 42.9704 17.0583 43.0127 17.1365C43.055 17.2148 43.0736 17.3036 43.0662 17.3922C43.0583 22.0886 43.0583 26.7837 43.0662 31.4775C43.0662 31.7372 42.9875 31.7922 42.7456 31.7903C41.3882 31.7903 40.0288 31.7903 38.6715 31.7903C38.4393 31.7903 38.3567 31.8394 38.3587 32.0913C38.3724 33.2558 38.3587 34.4224 38.3587 35.587C38.3464 35.6587 38.3574 35.7325 38.3899 35.7976C38.4225 35.8627 38.4749 35.9157 38.5397 35.949C39.1987 36.3227 39.8479 36.7142 40.5069 37.1017C43.5036 38.8762 46.5003 40.6467 49.497 42.4132C49.5899 42.4617 49.6701 42.5313 49.7313 42.6163C49.7924 42.7014 49.8328 42.7996 49.8492 42.9031C50.2328 44.8506 50.636 46.7981 51.0295 48.7437C51.2262 49.7017 51.4131 50.6598 51.6079 51.6355C57.9777 45.4998 61.6505 34.8513 57.8518 24.1476C55.9813 18.8807 52.4852 14.3447 47.8683 11.1945C43.2514 8.0444 37.7528 6.44325 32.1665 6.62234C26.5802 6.80143 21.1953 8.75148 16.7897 12.1909C12.3841 15.6302 9.18566 20.3809 7.65638 25.7568C4.70556 36.1044 8.44327 46.3358 15.1121 52.3103ZM40.2649 17.6499C40.2374 17.589 40.2354 17.5772 40.2275 17.5712C38.9082 16.5431 37.5882 15.5135 36.2675 14.4827C36.1731 14.4122 36.0567 14.3774 35.939 14.3844C34.7311 14.3844 33.5226 14.3844 32.3134 14.3844C32.2452 14.3808 32.1771 14.3936 32.1149 14.4216C32.0526 14.4497 31.9979 14.4922 31.9554 14.5457C31.2157 15.3739 30.4642 16.1922 29.7265 17.0224C29.6641 17.1003 29.5837 17.1617 29.4922 17.2015C29.4006 17.2413 29.3008 17.2581 29.2013 17.2506C28.6564 17.2368 28.1115 17.2506 27.5646 17.2506C26.8524 17.2506 26.4983 17.6047 26.4983 18.3109C26.4983 21.5608 26.4983 24.8113 26.4983 28.0624C26.4983 28.9221 26.9646 29.3785 27.8341 29.3785C29.3961 29.3785 30.9561 29.3785 32.518 29.3785C32.7698 29.3785 32.8446 29.4453 32.8406 29.7011C32.8229 30.4486 32.8269 31.1981 32.8406 31.9457C32.8406 32.1601 32.7738 32.2191 32.5652 32.2152C31.8157 32.2053 31.0682 32.2152 30.3187 32.2054C30.0728 32.2054 30.0157 32.2762 30.0197 32.5122C30.0197 33.7634 30.0197 35.0145 30.0197 36.2657C30.0268 36.3536 30.0099 36.4418 29.9707 36.5208C29.9316 36.5998 29.8716 36.6667 29.7974 36.7142C28.6544 37.5581 27.5272 38.4237 26.3783 39.2598C26.1305 39.4408 26.158 39.5293 26.3488 39.7299C28.5416 42.0368 30.7259 44.3509 32.9016 46.6722C33.0787 46.869 33.1692 46.8867 33.362 46.686C34.4065 45.5863 35.4688 44.5024 36.5252 43.4126C37.737 42.1614 38.9449 40.9063 40.1626 39.6631C40.3357 39.488 40.3003 39.4113 40.1213 39.2696C38.9528 38.406 37.7941 37.5286 36.6256 36.665C36.5607 36.6229 36.5083 36.5642 36.4738 36.495C36.4392 36.4259 36.4237 36.3487 36.4288 36.2716C36.4288 35.0106 36.4288 33.7476 36.4387 32.4867C36.4387 32.2388 36.3679 32.1857 36.1318 32.1896C35.3941 32.2054 34.6564 32.1896 33.9187 32.2014C33.6728 32.2014 33.6098 32.1286 33.6177 31.8926C33.6334 31.2827 33.6354 30.6729 33.6177 30.0631C33.6177 29.6696 33.6177 29.3627 34.0977 29.1522C34.6347 28.9221 35.0813 28.4775 35.5751 28.145C35.7701 28.0227 35.9288 27.8503 36.0347 27.6459C36.1406 27.4414 36.1897 27.2123 36.177 26.9824C36.177 23.9981 36.177 21.0139 36.1652 18.0316C36.1652 17.7011 36.2479 17.6381 36.5587 17.6381C37.7961 17.6617 39.0138 17.6499 40.2649 17.6499ZM39.6315 21.5352C39.3559 21.5379 39.0873 21.6221 38.8595 21.7771C38.6316 21.9321 38.4548 22.1511 38.3511 22.4064C38.2474 22.6618 38.2216 22.942 38.2769 23.212C38.3322 23.482 38.4661 23.7296 38.6618 23.9236C38.8574 24.1176 39.1061 24.2495 39.3766 24.3025C39.647 24.3555 39.9271 24.3273 40.1815 24.2215C40.436 24.1157 40.6534 23.937 40.8065 23.7079C40.9596 23.4787 41.0416 23.2094 41.042 22.9339C41.0428 22.749 41.0067 22.5658 40.936 22.3949C40.8652 22.2241 40.7612 22.0691 40.6299 21.9389C40.4986 21.8087 40.3427 21.7059 40.1713 21.6366C39.9999 21.5673 39.8163 21.5328 39.6315 21.5352ZM25.5285 15.4899L24.419 13.2021C24.2645 13.5612 24.1798 13.9464 24.1692 14.3372C24.1534 15.2067 24.602 15.604 25.5285 15.4899Z" fill="#003864"/>
<path d="M17.4787 53.2443C17.5397 52.8331 17.5948 52.42 17.6754 52.0108C17.7777 51.4207 17.8938 50.8187 17.9961 50.2206C18.2872 48.5406 18.6098 46.8646 18.8439 45.1767C18.8715 44.8925 18.9718 44.6201 19.1351 44.3858C19.2984 44.1516 19.5193 43.9632 19.7764 43.839C21.1672 43.0364 22.5305 42.1728 23.8879 41.321C23.9236 41.2903 23.9657 41.2678 24.0111 41.2551C24.0565 41.2424 24.1041 41.2398 24.1506 41.2475C24.1971 41.2552 24.2414 41.273 24.2803 41.2996C24.3192 41.3262 24.3518 41.3611 24.3757 41.4016C25.8184 43.0108 27.2682 44.6161 28.7253 46.2174C29.2734 46.8246 29.8249 47.4311 30.3797 48.037C30.4137 48.0662 30.4411 48.1024 30.4598 48.1432C30.4786 48.1839 30.4883 48.2283 30.4883 48.2731C30.4883 48.318 30.4786 48.3623 30.4598 48.403C30.4411 48.4438 30.4137 48.48 30.3797 48.5092C29.4767 49.658 28.4341 50.6731 27.4584 51.7629C26.5456 52.7741 25.623 53.7734 24.7043 54.7747C23.8623 55.6915 23.0125 56.6043 22.1705 57.5288C22.0702 57.639 22.0033 57.6528 21.8853 57.5407C20.5987 56.3131 19.3095 55.0875 18.0177 53.8639C17.878 53.7321 17.7403 53.5984 17.5967 53.4705C17.5596 53.4457 17.5294 53.412 17.5088 53.3725C17.4881 53.3329 17.4778 53.2888 17.4787 53.2443Z" fill="#18A2DC"/>
<path d="M49.2138 52.8926C49.2355 52.987 49.1509 53.0441 49.082 53.1109C47.6479 54.488 46.2099 55.8828 44.7856 57.2814C44.5751 57.488 44.4748 57.4526 44.2938 57.2578C41.52 54.2559 38.741 51.2591 35.9568 48.2677C35.7896 48.0887 35.8407 47.9962 35.9804 47.8546C37.9568 45.8428 39.9299 43.829 41.8997 41.8132C42.0409 41.6834 42.1724 41.5433 42.2932 41.3942C42.4899 41.1188 42.6669 41.1562 42.9246 41.3254C44.3922 42.2814 45.8754 43.2218 47.3469 44.1601C47.4474 44.2169 47.5335 44.2962 47.5983 44.3918C47.6632 44.4873 47.705 44.5965 47.7207 44.7109C48.2046 47.3995 48.6958 50.088 49.1941 52.7765C49.2 52.808 49.204 52.8395 49.2138 52.8926Z" fill="#EA1E25"/>
<path d="M37.9063 60.2062C37.7922 60.2279 37.7233 60.0902 37.6387 59.9859C36.6276 58.717 35.6125 57.4521 34.6073 56.1774C34.5569 56.0979 34.4845 56.0348 34.399 55.9957C34.3134 55.9566 34.2183 55.9432 34.1253 55.957C33.5823 56.0062 33.0374 56.0298 32.4945 56.0711C32.3561 56.0887 32.2155 56.0712 32.0856 56.0203C31.9556 55.9695 31.8406 55.8868 31.7509 55.78C31.2709 55.2233 30.7928 54.6626 30.305 54.1098C30.1751 53.9623 30.1594 53.8679 30.305 53.7164C31.3292 52.658 32.3476 51.5924 33.36 50.5197C33.5233 50.3465 33.6138 50.382 33.7535 50.5452C35.3443 52.3157 36.9404 54.0862 38.5417 55.8567C39.4997 56.917 40.4479 57.9872 41.4177 59.0397C41.6263 59.2659 41.5397 59.319 41.3174 59.3879C40.2453 59.7199 39.155 59.9899 38.0518 60.1964L37.9063 60.2062Z" fill="#EA1E25"/>
<path d="M32.9646 60.639C30.3117 60.6429 27.6723 60.2612 25.1292 59.5059C24.8794 59.4312 24.8872 59.38 25.0485 59.2128C26.3797 57.8279 27.7089 56.439 29.0361 55.0463C29.2053 54.8692 29.3803 54.6961 29.5417 54.5112C29.6676 54.3656 29.7502 54.3872 29.8662 54.5269C30.3285 55.0738 30.8026 55.6089 31.2649 56.1558C31.3997 56.3297 31.5757 56.4673 31.7769 56.5562C31.9782 56.6452 32.1984 56.6827 32.4177 56.6653C32.9194 56.6358 33.421 56.6141 33.9226 56.5846C33.985 56.5747 34.0488 56.5819 34.1074 56.6054C34.166 56.629 34.217 56.6681 34.2551 56.7184C35.1574 57.8554 36.0649 58.9892 36.9777 60.1197C37.1233 60.3007 37.0859 60.3499 36.8656 60.3794C35.5728 60.5553 34.2694 60.6421 32.9646 60.639Z" fill="#003864"/>
<path d="M15.1121 52.3103C8.44329 46.3359 4.70558 36.1044 7.64853 25.7647C9.17781 20.3888 12.3762 15.6381 16.7819 12.1988C21.1875 8.75938 26.5723 6.80933 32.1586 6.63024C37.7449 6.45115 43.2436 8.0523 47.8605 11.2024C52.4773 14.3526 55.9735 18.8886 57.8439 24.1555C61.6426 34.8591 57.9698 45.5077 51.6 51.6434C51.4033 50.6598 51.2066 49.7096 51.0216 48.7516C50.6282 46.806 50.2348 44.8585 49.8413 42.9109C49.8249 42.8075 49.7846 42.7093 49.7234 42.6242C49.6623 42.5392 49.5821 42.4696 49.4892 42.4211C46.4898 40.6506 43.4931 38.8801 40.499 37.1096C39.8459 36.7162 39.1967 36.3228 38.5318 35.9569C38.4671 35.9236 38.4146 35.8706 38.3821 35.8055C38.3496 35.7404 38.3386 35.6666 38.3508 35.5949C38.3508 34.4303 38.3508 33.2637 38.3508 32.0991C38.3508 31.8473 38.4315 31.7962 38.6636 31.7982C40.021 31.7982 41.3803 31.7982 42.7377 31.7982C42.9797 31.7982 43.0584 31.745 43.0584 31.4854C43.0505 26.7916 43.0505 22.0965 43.0584 17.4001C43.0657 17.3115 43.0471 17.2227 43.0049 17.1444C42.9626 17.0662 42.8985 17.0019 42.8203 16.9595C40.1685 15.2598 37.5141 13.5634 34.8571 11.8703C34.6777 11.7549 34.4684 11.6947 34.2551 11.6972C32.158 11.6972 30.061 11.6814 27.96 11.6795C27.1731 11.6795 26.4748 11.3234 25.7548 11.0716C25.0348 10.8198 24.2931 10.5306 23.5594 10.269C23.2013 10.1411 23.1207 10.1903 23.1462 10.568C23.224 11.6053 23.0548 12.6462 22.6525 13.6054C22.5848 13.7632 22.5562 13.9351 22.5693 14.1063C22.5823 14.2776 22.6365 14.4432 22.7272 14.589C23.3312 15.6828 23.9272 16.7805 24.5351 17.8742C24.6327 18.0504 24.6816 18.2493 24.6767 18.4506C24.6767 21.8303 24.6767 25.21 24.6767 28.5896C24.6733 28.803 24.7427 29.0112 24.8735 29.1798C25.4636 30.0119 26.0538 30.8539 26.6439 31.6998C26.6785 31.7648 26.7315 31.8181 26.7962 31.8531C26.861 31.8881 26.9346 31.9032 27.0079 31.8965C27.3482 31.8847 27.6925 31.8965 28.0348 31.8965C28.2039 31.8965 28.2512 31.9536 28.2492 32.1188C28.2492 33.2637 28.2492 34.4087 28.2492 35.5516C28.2505 35.636 28.2262 35.7187 28.1795 35.789C28.1327 35.8592 28.0658 35.9136 27.9875 35.945L23.1856 38.8447C21.1554 40.0723 19.1226 41.2978 17.0872 42.5214C17.0238 42.5586 16.9701 42.6102 16.9304 42.6721C16.8908 42.734 16.8663 42.8044 16.859 42.8775C16.3738 45.5149 15.8853 48.1569 15.3935 50.8034C15.3049 51.2932 15.2105 51.787 15.1121 52.3103Z" fill="#FCEAC5"/>
<path d="M40.265 17.6498C39.0138 17.6498 37.7961 17.6616 36.5784 17.6498C36.2597 17.6498 36.1751 17.7167 36.185 18.0432C36.1987 21.0255 36.185 24.0098 36.1968 26.994C36.2095 27.2239 36.1603 27.453 36.0544 27.6575C35.9486 27.862 35.7899 28.0343 35.5948 28.1567C35.0991 28.4891 34.6545 28.9435 34.1174 29.1639C33.6315 29.3744 33.6276 29.6734 33.6374 30.0747C33.6532 30.6845 33.6512 31.2944 33.6374 31.9042C33.6374 32.1403 33.6925 32.2189 33.9384 32.213C34.6761 32.1973 35.4138 32.213 36.1515 32.2012C36.3876 32.2012 36.4623 32.2504 36.4584 32.4983C36.4446 33.7593 36.4584 35.0222 36.4486 36.2832C36.4434 36.3604 36.4589 36.4375 36.4935 36.5066C36.5281 36.5758 36.5805 36.6345 36.6453 36.6767C37.8138 37.5403 38.9725 38.4176 40.141 39.2812C40.32 39.415 40.3555 39.4917 40.1823 39.6747C38.9646 40.918 37.7568 42.173 36.545 43.4242C35.4886 44.514 34.4263 45.5881 33.3817 46.6976C33.185 46.8944 33.0984 46.8727 32.9214 46.6839C30.7456 44.3586 28.5627 42.0399 26.3725 39.7278C26.1758 39.5311 26.1541 39.4386 26.402 39.2576C27.5509 38.4216 28.6781 37.556 29.821 36.7121C29.8953 36.6645 29.9552 36.5976 29.9944 36.5186C30.0335 36.4396 30.0505 36.3514 30.0433 36.2635C30.0433 35.0124 30.0433 33.7612 30.0433 32.5101C30.0433 32.274 30.0964 32.1973 30.3423 32.2032C31.0918 32.2209 31.8394 32.2032 32.5889 32.213C32.7974 32.213 32.8682 32.158 32.8643 31.9435C32.8643 31.196 32.8505 30.4465 32.8643 29.6989C32.8643 29.4432 32.7935 29.3744 32.5417 29.3763C30.9797 29.3881 29.4197 29.3763 27.8577 29.3763C26.9882 29.3763 26.522 28.9199 26.522 28.0603C26.522 24.8104 26.522 21.5599 26.522 18.3088C26.522 17.6026 26.8761 17.2524 27.5882 17.2485C28.1351 17.2485 28.68 17.2485 29.225 17.2485C29.3245 17.256 29.4243 17.2391 29.5158 17.1994C29.6074 17.1596 29.6878 17.0981 29.7502 17.0203C30.4879 16.1901 31.2394 15.3717 31.9791 14.5435C32.0216 14.4901 32.0763 14.4476 32.1385 14.4195C32.2008 14.3914 32.2689 14.3787 32.3371 14.3822C33.545 14.3822 34.7535 14.3822 35.9627 14.3822C36.0803 14.3752 36.1967 14.4101 36.2912 14.4806C37.6027 15.5114 38.9227 16.5409 40.2512 17.5691C40.2512 17.5691 40.2374 17.5888 40.265 17.6498ZM27.1476 23.1717C27.1476 24.7967 27.1476 26.4216 27.1476 28.0465C27.1476 28.5049 27.36 28.7232 27.8125 28.7252C29.6617 28.7252 31.5109 28.7252 33.362 28.7252C33.5324 28.7305 33.6998 28.6793 33.8381 28.5796C34.2689 28.2708 34.7056 27.9737 35.1443 27.6786C35.279 27.5937 35.3882 27.4739 35.4602 27.3318C35.5323 27.1898 35.5645 27.0309 35.5535 26.8721C35.5391 23.996 35.5391 21.1199 35.5535 18.2439C35.5535 17.9449 35.4886 17.8504 35.16 17.8504C32.6597 17.8662 30.1574 17.8504 27.6551 17.8504C27.2302 17.8504 27.1456 17.9311 27.1456 18.3501L27.1476 23.1717ZM33.6886 45.4406C33.757 45.3925 33.8227 45.3406 33.8853 45.2852C35.6545 43.4557 37.425 41.6229 39.1968 39.7868C39.3935 39.5901 39.3935 39.4898 39.1633 39.3245C38.1305 38.5652 37.1135 37.7862 36.0807 37.0249C36.0019 36.9733 35.9383 36.9016 35.8964 36.8172C35.8546 36.7328 35.836 36.6388 35.8427 36.5449C35.8525 35.3999 35.8427 34.257 35.8427 33.1121C35.8427 32.8563 35.7659 32.7816 35.5141 32.7894C35.0125 32.8071 34.5089 32.813 34.0073 32.7894C33.6964 32.7737 33.6138 32.874 33.6138 33.1829C33.6243 37.1173 33.6243 41.0517 33.6138 44.9862C33.6055 45.1413 33.631 45.2963 33.6886 45.4406ZM32.7423 45.4819C32.7925 45.3489 32.812 45.2064 32.7994 45.0648C32.7994 42.6701 32.7994 40.276 32.7994 37.8826C32.7994 36.3547 32.7994 34.8262 32.7994 33.297C32.7994 32.8799 32.76 32.8445 32.3332 32.8445C31.9063 32.8445 31.4361 32.8445 30.9876 32.8445C30.7909 32.8445 30.6964 32.9114 30.6964 33.1219C30.6964 34.2216 30.6827 35.3232 30.6964 36.4249C30.7087 36.56 30.6831 36.696 30.6227 36.8175C30.5623 36.9391 30.4693 37.0415 30.3541 37.1134C29.3292 37.8589 28.32 38.6242 27.305 39.3816C27.185 39.4721 27.0669 39.5291 27.242 39.7121C28.8158 41.3645 30.3679 43.0327 31.9377 44.6871C32.1737 44.9838 32.4415 45.2536 32.7364 45.4917L32.7423 45.4819ZM38.4473 17.0262C38.4473 16.9298 38.3823 16.9062 38.3371 16.8708C37.583 16.2767 36.8276 15.6865 36.0709 15.1003C35.9769 15.0286 35.8603 14.993 35.7423 14.9999C34.8217 14.9999 33.901 15.0255 32.9882 14.9999C32.7956 14.9783 32.6006 15.0076 32.4228 15.0849C32.245 15.1622 32.0907 15.2849 31.9751 15.4406C31.5443 15.9796 31.0604 16.4753 30.5528 17.0419L38.4473 17.0262Z" fill="#FCEAC5"/>
<path d="M39.6315 21.5352C39.9072 21.5344 40.177 21.6153 40.4069 21.7676C40.6367 21.9199 40.8164 22.1368 40.9231 22.3911C41.0299 22.6453 41.059 22.9255 41.0068 23.1962C40.9546 23.467 40.8235 23.7162 40.6299 23.9126C40.4363 24.1089 40.1889 24.2435 39.9189 24.2995C39.6489 24.3555 39.3684 24.3303 39.1127 24.2271C38.857 24.1239 38.6375 23.9474 38.482 23.7197C38.3265 23.492 38.2418 23.2233 38.2387 22.9476C38.2369 22.7633 38.2715 22.5804 38.3406 22.4095C38.4098 22.2386 38.512 22.083 38.6414 21.9518C38.7708 21.8205 38.9249 21.7161 39.0949 21.6446C39.2648 21.5731 39.4472 21.5359 39.6315 21.5352Z" fill="#FCEAC5"/>
<path d="M25.5285 15.4895C24.602 15.6036 24.1515 15.2063 24.1692 14.3367C24.1798 13.946 24.2646 13.5608 24.419 13.2017L25.5285 15.4895Z" fill="#FCEAC5"/>
<path d="M27.1476 23.1718V18.362C27.1476 17.943 27.2322 17.8623 27.6571 17.8623C30.1594 17.8623 32.6617 17.8623 35.162 17.8623C35.4827 17.8623 35.5555 17.9587 35.5555 18.2557C35.5463 21.1318 35.5463 24.0079 35.5555 26.8839C35.5665 27.0428 35.5343 27.2017 35.4622 27.3437C35.3902 27.4857 35.281 27.6056 35.1463 27.6905C34.7076 27.9856 34.2709 28.2807 33.84 28.5915C33.7017 28.6912 33.5344 28.7424 33.364 28.7371C31.5128 28.7371 29.6636 28.7371 27.8145 28.7371C27.362 28.7371 27.1496 28.5167 27.1496 28.0584C27.1496 26.4335 27.1496 24.8085 27.1496 23.1836L27.1476 23.1718ZM28.6859 24.1554C29.5496 24.1967 30.1948 23.64 30.2597 22.8276C30.2787 22.6281 30.2563 22.4268 30.1939 22.2364C30.1316 22.046 30.0306 21.8705 29.8972 21.7209C29.7639 21.5713 29.6011 21.4509 29.4191 21.3671C29.2371 21.2834 29.0397 21.2381 28.8394 21.2341C28.4527 21.2263 28.078 21.3687 27.7941 21.6314C27.5102 21.894 27.3391 22.2565 27.3168 22.6426C27.2774 23.3174 27.8499 24.2184 28.6859 24.1594V24.1554Z" fill="#21A1DC"/>
<path d="M33.6885 45.4403C33.64 45.2934 33.6239 45.1377 33.6413 44.9839C33.6413 41.0495 33.6413 37.1151 33.6413 33.1807C33.6413 32.8718 33.7239 32.7715 34.0347 32.7872C34.5364 32.8128 35.04 32.8069 35.5416 32.7872C35.7934 32.7872 35.8741 32.8541 35.8702 33.1098C35.8584 34.2548 35.8702 35.3977 35.8702 36.5426C35.8635 36.6366 35.8821 36.7306 35.9239 36.815C35.9658 36.8994 36.0294 36.971 36.1082 37.0226C37.141 37.7839 38.158 38.563 39.1908 39.3223C39.3934 39.4915 39.3934 39.5898 39.1967 39.7866C37.421 41.6161 35.6505 43.4521 33.8852 45.2948C33.8224 45.3468 33.7567 45.3954 33.6885 45.4403Z" fill="#EA1E25"/>
<path d="M32.7364 45.4915C32.439 45.2595 32.1679 44.9956 31.9279 44.7046C30.3541 43.0502 28.802 41.382 27.2322 39.7295C27.0571 39.5466 27.1751 39.4895 27.2951 39.399C28.3102 38.6416 29.3194 37.8764 30.3443 37.1308C30.4594 37.059 30.5524 36.9565 30.6128 36.835C30.6733 36.7134 30.6988 36.5775 30.6866 36.4423C30.6649 35.3407 30.6866 34.239 30.6866 33.1393C30.6866 32.9289 30.7731 32.858 30.9777 32.862C31.4263 32.862 31.8748 32.862 32.3233 32.862C32.7718 32.862 32.7895 32.8974 32.7895 33.3144C32.7895 34.8436 32.7895 36.3721 32.7895 37.9C32.7895 40.2948 32.7895 42.6889 32.7895 45.0823C32.8022 45.2209 32.7841 45.3607 32.7364 45.4915Z" fill="#18A2DC"/>
<path d="M38.4453 17.0259H30.541C31.0486 16.4594 31.5246 15.9637 31.9633 15.4246C32.0788 15.2689 32.2332 15.1463 32.411 15.069C32.5888 14.9916 32.7838 14.9623 32.9764 14.984C33.8951 15.0174 34.8158 14.9958 35.7305 14.984C35.8485 14.977 35.9651 15.0126 36.0591 15.0843C36.8145 15.6771 37.5699 16.2673 38.3253 16.8548C38.3804 16.9059 38.4531 16.9296 38.4453 17.0259Z" fill="#E91E25"/>
<path d="M28.6859 24.1594C27.8498 24.2184 27.2774 23.3174 27.3089 22.6466C27.3312 22.2605 27.5023 21.898 27.7862 21.6354C28.0701 21.3727 28.4448 21.2303 28.8315 21.2381C29.0318 21.2421 29.2292 21.2874 29.4112 21.3711C29.5932 21.4549 29.756 21.5753 29.8893 21.7249C30.0227 21.8745 30.1237 22.05 30.186 22.2404C30.2484 22.4308 30.2708 22.6321 30.2518 22.8315C30.1948 23.644 29.5574 24.2007 28.6859 24.1594ZM28.9023 21.6768C28.6813 21.6709 28.4668 21.7522 28.3052 21.9031C28.1437 22.054 28.0479 22.2624 28.0387 22.4833C28.0423 22.704 28.1293 22.9151 28.2822 23.0742C28.4352 23.2333 28.6426 23.3286 28.863 23.341C28.9751 23.3424 29.0864 23.3213 29.1903 23.2791C29.2942 23.2369 29.3887 23.1744 29.4682 23.0953C29.5477 23.0162 29.6106 22.922 29.6533 22.8183C29.6959 22.7146 29.7175 22.6034 29.7167 22.4912C29.7157 22.2755 29.6296 22.069 29.477 21.9165C29.3245 21.764 29.118 21.6778 28.9023 21.6768Z" fill="#FCEAC5"/>
<path d="M28.9023 21.6766C29.118 21.6776 29.3245 21.7637 29.477 21.9163C29.6296 22.0688 29.7157 22.2753 29.7167 22.491C29.7175 22.6032 29.6959 22.7143 29.6533 22.8181C29.6106 22.9218 29.5477 23.016 29.4682 23.0951C29.3887 23.1742 29.2942 23.2367 29.1903 23.2789C29.0864 23.3211 28.9751 23.3421 28.863 23.3408C28.6413 23.3283 28.4327 23.2319 28.2796 23.0711C28.1265 22.9103 28.0403 22.6973 28.0387 22.4753C28.0499 22.2558 28.1465 22.0493 28.3079 21.9001C28.4693 21.7509 28.6826 21.6706 28.9023 21.6766Z" fill="#003864"/>
<path d="M94.0469 32.082V38.8438C93.7812 39.1641 93.3711 39.5117 92.8164 39.8867C92.2617 40.2539 91.5469 40.5703 90.6719 40.8359C89.7969 41.1016 88.7383 41.2344 87.4961 41.2344C86.3945 41.2344 85.3906 41.0547 84.4844 40.6953C83.5781 40.3281 82.7969 39.793 82.1406 39.0898C81.4922 38.3867 80.9922 37.5273 80.6406 36.5117C80.2891 35.4883 80.1133 34.3203 80.1133 33.0078V31.9414C80.1133 30.6289 80.2812 29.4609 80.6172 28.4375C80.9609 27.4141 81.4492 26.5508 82.082 25.8477C82.7148 25.1445 83.4688 24.6094 84.3438 24.2422C85.2188 23.875 86.1914 23.6914 87.2617 23.6914C88.7461 23.6914 89.9648 23.9336 90.918 24.418C91.8711 24.8945 92.5977 25.5586 93.0977 26.4102C93.6055 27.2539 93.918 28.2227 94.0352 29.3164H90.625C90.5391 28.7383 90.375 28.2344 90.1328 27.8047C89.8906 27.375 89.543 27.0391 89.0898 26.7969C88.6445 26.5547 88.0664 26.4336 87.3555 26.4336C86.7695 26.4336 86.2461 26.5547 85.7852 26.7969C85.332 27.0312 84.9492 27.3789 84.6367 27.8398C84.3242 28.3008 84.0859 28.8711 83.9219 29.5508C83.7578 30.2305 83.6758 31.0195 83.6758 31.918V33.0078C83.6758 33.8984 83.7617 34.6875 83.9336 35.375C84.1055 36.0547 84.3594 36.6289 84.6953 37.0977C85.0391 37.5586 85.4609 37.9062 85.9609 38.1406C86.4609 38.375 87.043 38.4922 87.707 38.4922C88.2617 38.4922 88.7227 38.4453 89.0898 38.3516C89.4648 38.2578 89.7656 38.1445 89.9922 38.0117C90.2266 37.8711 90.4062 37.7383 90.5312 37.6133V34.5898H87.3203V32.082H94.0469ZM103.516 38.1406V32.4922C103.516 32.0859 103.449 31.7383 103.316 31.4492C103.184 31.1523 102.977 30.9219 102.695 30.7578C102.422 30.5938 102.066 30.5117 101.629 30.5117C101.254 30.5117 100.93 30.5781 100.656 30.7109C100.383 30.8359 100.172 31.0195 100.023 31.2617C99.875 31.4961 99.8008 31.7734 99.8008 32.0938H96.4258C96.4258 31.5547 96.5508 31.043 96.8008 30.5586C97.0508 30.0742 97.4141 29.6484 97.8906 29.2812C98.3672 28.9062 98.9336 28.6133 99.5898 28.4023C100.254 28.1914 100.996 28.0859 101.816 28.0859C102.801 28.0859 103.676 28.25 104.441 28.5781C105.207 28.9062 105.809 29.3984 106.246 30.0547C106.691 30.7109 106.914 31.5312 106.914 32.5156V37.9414C106.914 38.6367 106.957 39.207 107.043 39.6523C107.129 40.0898 107.254 40.4727 107.418 40.8008V41H104.008C103.844 40.6562 103.719 40.2266 103.633 39.7109C103.555 39.1875 103.516 38.6641 103.516 38.1406ZM103.961 33.2773L103.984 35.1875H102.098C101.652 35.1875 101.266 35.2383 100.938 35.3398C100.609 35.4414 100.34 35.5859 100.129 35.7734C99.918 35.9531 99.7617 36.1641 99.6602 36.4062C99.5664 36.6484 99.5195 36.9141 99.5195 37.2031C99.5195 37.4922 99.5859 37.7539 99.7188 37.9883C99.8516 38.2148 100.043 38.3945 100.293 38.5273C100.543 38.6523 100.836 38.7148 101.172 38.7148C101.68 38.7148 102.121 38.6133 102.496 38.4102C102.871 38.207 103.16 37.957 103.363 37.6602C103.574 37.3633 103.684 37.082 103.691 36.8164L104.582 38.2461C104.457 38.5664 104.285 38.8984 104.066 39.2422C103.855 39.5859 103.586 39.9102 103.258 40.2148C102.93 40.5117 102.535 40.7578 102.074 40.9531C101.613 41.1406 101.066 41.2344 100.434 41.2344C99.6289 41.2344 98.8984 41.0742 98.2422 40.7539C97.5938 40.4258 97.0781 39.9766 96.6953 39.4062C96.3203 38.8281 96.1328 38.1719 96.1328 37.4375C96.1328 36.7734 96.2578 36.1836 96.5078 35.668C96.7578 35.1523 97.125 34.7188 97.6094 34.3672C98.1016 34.0078 98.7148 33.7383 99.4492 33.5586C100.184 33.3711 101.035 33.2773 102.004 33.2773H103.961ZM112.891 31.0859V41H109.516V28.3203H112.691L112.891 31.0859ZM116.711 28.2383L116.652 31.3672C116.488 31.3438 116.289 31.3242 116.055 31.3086C115.828 31.2852 115.621 31.2734 115.434 31.2734C114.957 31.2734 114.543 31.3359 114.191 31.4609C113.848 31.5781 113.559 31.7539 113.324 31.9883C113.098 32.2227 112.926 32.5078 112.809 32.8438C112.699 33.1797 112.637 33.5625 112.621 33.9922L111.941 33.7812C111.941 32.9609 112.023 32.207 112.188 31.5195C112.352 30.8242 112.59 30.2188 112.902 29.7031C113.223 29.1875 113.613 28.7891 114.074 28.5078C114.535 28.2266 115.062 28.0859 115.656 28.0859C115.844 28.0859 116.035 28.1016 116.23 28.1328C116.426 28.1562 116.586 28.1914 116.711 28.2383ZM118.305 23H121.68V38.0938L121.34 41H118.305V23ZM129.707 34.5312V34.7773C129.707 35.7227 129.605 36.5898 129.402 37.3789C129.207 38.168 128.902 38.8516 128.488 39.4297C128.074 40 127.559 40.4453 126.941 40.7656C126.332 41.0781 125.613 41.2344 124.785 41.2344C124.012 41.2344 123.34 41.0781 122.77 40.7656C122.207 40.4531 121.734 40.0117 121.352 39.4414C120.969 38.8711 120.66 38.2031 120.426 37.4375C120.191 36.6719 120.016 35.8359 119.898 34.9297V34.3906C120.016 33.4844 120.191 32.6484 120.426 31.8828C120.66 31.1172 120.969 30.4492 121.352 29.8789C121.734 29.3086 122.207 28.8672 122.77 28.5547C123.332 28.2422 123.996 28.0859 124.762 28.0859C125.598 28.0859 126.324 28.2461 126.941 28.5664C127.566 28.8789 128.082 29.3242 128.488 29.9023C128.902 30.4727 129.207 31.1523 129.402 31.9414C129.605 32.7227 129.707 33.5859 129.707 34.5312ZM126.332 34.7773V34.5312C126.332 34.0156 126.293 33.5312 126.215 33.0781C126.145 32.6172 126.02 32.2148 125.84 31.8711C125.66 31.5195 125.414 31.2422 125.102 31.0391C124.797 30.8359 124.402 30.7344 123.918 30.7344C123.457 30.7344 123.066 30.8125 122.746 30.9688C122.426 31.125 122.16 31.3438 121.949 31.625C121.746 31.9062 121.594 32.2422 121.492 32.6328C121.391 33.0156 121.328 33.4375 121.305 33.8984V35.4336C121.328 36.0508 121.43 36.5977 121.609 37.0742C121.797 37.543 122.078 37.9141 122.453 38.1875C122.836 38.4531 123.332 38.5859 123.941 38.5859C124.418 38.5859 124.812 38.4922 125.125 38.3047C125.438 38.1172 125.68 37.8516 125.852 37.5078C126.031 37.1641 126.156 36.7617 126.227 36.3008C126.297 35.832 126.332 35.3242 126.332 34.7773ZM135.367 28.3203V41H131.98V28.3203H135.367ZM131.77 25.0156C131.77 24.5234 131.941 24.1172 132.285 23.7969C132.629 23.4766 133.09 23.3164 133.668 23.3164C134.238 23.3164 134.695 23.4766 135.039 23.7969C135.391 24.1172 135.566 24.5234 135.566 25.0156C135.566 25.5078 135.391 25.9141 135.039 26.2344C134.695 26.5547 134.238 26.7148 133.668 26.7148C133.09 26.7148 132.629 26.5547 132.285 26.2344C131.941 25.9141 131.77 25.5078 131.77 25.0156Z" fill="#00359C"/>
</svg>
