<svg width="165" height="28" viewBox="0 0 165 28" fill="none" xmlns="http://www.w3.org/2000/svg">
<path fill-rule="evenodd" clip-rule="evenodd" d="M9.33333 1.16667H11.8834L12.8289 0.362553C13.3816 -0.107561 14.6184 -0.107561 15.1711 0.362554L16.1165 1.16667H18.6667C21.244 1.16667 23.3333 3.256 23.3333 5.83333C24.622 5.83333 25.6667 6.878 25.6667 8.16667H21V5.83333C21 4.54467 19.9553 3.5 18.6667 3.5H9.33333C8.04467 3.5 7 4.54467 7 5.83333V8.16667H2.33333C2.33333 6.878 3.378 5.83333 4.66667 5.83333C4.66667 3.256 6.756 1.16667 9.33333 1.16667ZM9.33333 22.1667H18.6667C19.9553 22.1667 21 23.2113 21 24.5V26.8333H25.6667C25.6667 25.5447 24.622 24.5 23.3333 24.5C23.3333 21.9227 21.244 19.8333 18.6667 19.8333H9.33333C6.756 19.8333 4.66667 21.9227 4.66667 24.5C3.378 24.5 2.33333 25.5447 2.33333 26.8333H7V24.5C7 23.2113 8.04467 22.1667 9.33333 22.1667ZM9.33333 15.1667L18.6667 15.1667C19.9553 15.1667 21 14.122 21 12.8333V10.5L25.6667 10.5C25.6667 11.7887 24.622 12.8333 23.3333 12.8333C23.3333 15.4107 21.244 17.5 18.6667 17.5H16.1283L15.1711 18.3141C14.6184 18.7842 13.3816 18.7842 12.8289 18.3141L11.8717 17.5H9.33333C6.756 17.5 4.66667 15.4107 4.66667 12.8333C3.378 12.8333 2.33333 11.7887 2.33333 10.5H7L7 12.8333C7 14.122 8.04467 15.1667 9.33333 15.1667ZM10.5 7C9.85567 7 9.33333 7.52233 9.33333 8.16667V10.5C9.33333 11.1443 9.85567 11.6667 10.5 11.6667C11.1443 11.6667 11.6667 11.1443 11.6667 10.5V8.16667C11.6667 7.52233 11.1443 7 10.5 7ZM16.3333 8.16667C16.3333 7.52233 16.8557 7 17.5 7C18.1443 7 18.6667 7.52233 18.6667 8.16667V10.5C18.6667 11.1443 18.1443 11.6667 17.5 11.6667C16.8557 11.6667 16.3333 11.1443 16.3333 10.5V8.16667Z" fill="white"/>
<path d="M32.5 7.54H38.76C38.9733 7.54 39.1467 7.61333 39.28 7.76C39.4133 7.90667 39.48 8.1 39.48 8.34V22H37.38C36.9267 22 36.6267 21.9267 36.48 21.78C36.3467 21.6333 36.28 21.3267 36.28 20.86V10.04H33.08C32.6933 10.04 32.5 9.72 32.5 9.08V7.54ZM40.28 7.54H43.48C43.8667 7.54 44.06 7.86 44.06 8.5V10.04H40.28V7.54ZM43.6083 12H45.8883C46.1016 12 46.2749 12.0733 46.4083 12.22C46.5416 12.3667 46.6083 12.56 46.6083 12.8V19.9C46.6083 20.1133 46.6549 20.2667 46.7483 20.36C46.8549 20.4533 47.0816 20.5 47.4283 20.5H48.5883V22H45.7883C44.3349 22 43.6083 21.2867 43.6083 19.86V12ZM52.9883 21.86C52.9883 21.9533 52.9549 22 52.8883 22H50.8683C50.2816 22 49.8349 21.86 49.5283 21.58C49.2349 21.2867 49.0883 20.9133 49.0883 20.46V12H51.3683C51.5816 12 51.7549 12.0733 51.8883 12.22C52.0216 12.3667 52.0883 12.56 52.0883 12.8V19.74C52.0883 20.1533 52.1749 20.3867 52.3483 20.44C52.4416 20.48 52.5683 20.5 52.7283 20.5H52.8283C52.9349 20.5 52.9883 20.5467 52.9883 20.64V21.86ZM56.7453 12H59.1453C59.2253 12 59.2653 12.0467 59.2653 12.14V13.36C59.2653 13.4533 59.212 13.5 59.1053 13.5H58.2053C57.8853 13.5 57.6986 13.56 57.6453 13.68C57.592 13.8533 57.5653 14.0467 57.5653 14.26V20.46C57.5653 20.9133 57.412 21.2867 57.1053 21.58C56.812 21.86 56.372 22 55.7853 22H54.5653V14.22C54.5653 13.4333 54.7386 12.8667 55.0853 12.52C55.4453 12.1733 55.9986 12 56.7453 12ZM60.7967 12.02H62.0167C62.6034 12.02 63.0434 12.1667 63.3367 12.46C63.6434 12.74 63.7967 13.1067 63.7967 13.56V22H61.5167C61.3034 22 61.1301 21.9267 60.9967 21.78C60.8634 21.6333 60.7967 21.44 60.7967 21.2V12.02ZM60.9367 7.76C61.0834 7.61333 61.5101 7.54 62.2167 7.54C62.9234 7.54 63.3501 7.61333 63.4967 7.76C63.6434 7.89333 63.7167 8.29333 63.7167 8.96C63.7167 9.62667 63.6367 10.0333 63.4767 10.18C63.3301 10.3267 62.9101 10.4 62.2167 10.4C61.5234 10.4 61.0967 10.3267 60.9367 10.18C60.7901 10.0333 60.7167 9.62667 60.7167 8.96C60.7167 8.29333 60.7901 7.89333 60.9367 7.76ZM69.5897 12H72.3897C73.843 12 74.5697 12.7133 74.5697 14.14V22H72.2897C72.0764 22 71.903 21.9267 71.7697 21.78C71.6364 21.6333 71.5697 21.44 71.5697 21.2V14.1C71.5697 13.8867 71.5164 13.7333 71.4097 13.64C71.3164 13.5467 71.0964 13.5 70.7497 13.5H69.5897V12ZM66.0897 12H67.3097C67.8964 12 68.3364 12.1467 68.6297 12.44C68.9364 12.72 69.0897 13.0867 69.0897 13.54V22H66.8097C66.5964 22 66.423 21.9267 66.2897 21.78C66.1564 21.6333 66.0897 21.44 66.0897 21.2V12ZM81.7114 13.5H80.6314C80.2847 13.5 80.0581 13.5467 79.9514 13.64C79.8581 13.7333 79.8114 13.8867 79.8114 14.1V19.92C79.8114 20.12 79.8581 20.2667 79.9514 20.36C80.0581 20.4533 80.2847 20.5 80.6314 20.5H81.7114V22H79.7714C79.2647 22 78.8514 21.98 78.5314 21.94C78.2114 21.8867 77.9314 21.78 77.6914 21.62C77.4514 21.46 77.2714 21.2867 77.1514 21.1C77.0314 20.9 76.9314 20.5867 76.8514 20.16C76.7581 19.56 76.7114 18.72 76.7114 17.64C76.7114 16.56 76.7181 15.8333 76.7314 15.46C76.7447 15.0733 76.7647 14.6667 76.7914 14.24C76.8314 13.8133 76.8914 13.5 76.9714 13.3C77.0647 13.1 77.1781 12.9 77.3114 12.7C77.4581 12.4867 77.6447 12.34 77.8714 12.26C78.3647 12.0867 78.9981 12 79.7714 12H81.7114V13.5ZM80.0114 23.28V24.34C80.0114 24.5667 80.0447 24.72 80.1114 24.8C80.1781 24.8933 80.3514 24.94 80.6314 24.94H81.7114V26.44H79.1914C77.7381 26.44 77.0114 25.7267 77.0114 24.3V23.7C77.0114 23.5 77.0314 23.3867 77.0714 23.36C77.1247 23.3333 77.1581 23.3133 77.1714 23.3C77.1847 23.3 77.2181 23.2933 77.2714 23.28C77.3381 23.28 77.3847 23.28 77.4114 23.28C78.2781 23.28 79.1447 23.28 80.0114 23.28ZM82.3114 12H83.5314C84.1181 12 84.5581 12.1467 84.8514 12.44C85.1581 12.72 85.3114 13.0867 85.3114 13.54V24.92C85.3114 25.3733 85.1581 25.74 84.8514 26.02C84.5581 26.3133 84.1181 26.46 83.5314 26.46H82.3114V12ZM98.3331 7.54H101.333C102.306 7.54 103.04 7.70667 103.533 8.04C104.04 8.37333 104.293 8.95333 104.293 9.78V20.86C104.293 21.3267 104.22 21.6333 104.073 21.78C103.94 21.9267 103.646 22 103.193 22H101.093V10.02C101.093 9.80667 101.06 9.66 100.993 9.58C100.94 9.48667 100.793 9.44 100.553 9.44H98.3331V7.54ZM91.0731 22H88.9731C88.5198 22 88.2198 21.9267 88.0731 21.78C87.9398 21.6333 87.8731 21.3267 87.8731 20.86V8.34C87.8731 8.1 87.9398 7.90667 88.0731 7.76C88.2065 7.61333 88.3798 7.54 88.5931 7.54H91.0731V22ZM91.8931 7.54H97.0131C97.2265 7.54 97.3998 7.61333 97.5331 7.76C97.6665 7.90667 97.7331 8.1 97.7331 8.34V20.54H95.6531C95.2531 20.54 94.9665 20.4333 94.7931 20.22C94.6198 19.9933 94.5331 19.6333 94.5331 19.14V10.02C94.5331 9.80667 94.4998 9.66 94.4331 9.58C94.3798 9.48667 94.2331 9.44 93.9931 9.44H91.8931V7.54ZM111.711 13.5H110.631C110.218 13.5 109.985 13.5733 109.931 13.72C109.851 13.8933 109.811 14.14 109.811 14.46V19.54C109.811 19.5667 109.811 19.6467 109.811 19.78C109.811 19.9133 109.825 20.0267 109.851 20.12C109.905 20.3733 110.165 20.5 110.631 20.5H111.711V22H109.771C109.265 22 108.851 21.98 108.531 21.94C108.211 21.8867 107.931 21.78 107.691 21.62C107.451 21.46 107.271 21.2867 107.151 21.1C107.031 20.9 106.931 20.5867 106.851 20.16C106.758 19.56 106.711 18.72 106.711 17.64C106.711 16.56 106.718 15.8333 106.731 15.46C106.745 15.0733 106.765 14.6667 106.791 14.24C106.831 13.8133 106.891 13.5 106.971 13.3C107.065 13.1 107.178 12.9 107.311 12.7C107.458 12.4867 107.645 12.34 107.871 12.26C108.365 12.0867 108.998 12 109.771 12H111.711V13.5ZM116.211 21.86C116.211 21.9533 116.185 22 116.131 22H114.491C113.745 22 113.191 21.8267 112.831 21.48C112.485 21.1333 112.311 20.5667 112.311 19.78V12H113.131C113.971 12 114.545 12.2 114.851 12.6C115.158 12.9867 115.311 13.5 115.311 14.14V19.74C115.311 20.1533 115.398 20.3867 115.571 20.44C115.665 20.48 115.791 20.5 115.951 20.5H116.051C116.158 20.5 116.211 20.5467 116.211 20.64V21.86ZM120.749 22H120.709C119.389 22 118.576 21.7733 118.269 21.32C118.122 21.1067 118.002 20.9 117.909 20.7C117.829 20.5 117.776 20.1867 117.749 19.76C117.682 18.9867 117.649 18.1267 117.649 17.18C117.649 16.2333 117.656 15.5533 117.669 15.14C117.682 14.7133 117.722 14.2867 117.789 13.86C117.869 13.42 117.969 13.1067 118.089 12.92C118.209 12.72 118.389 12.54 118.629 12.38C118.869 12.22 119.149 12.12 119.469 12.08C119.789 12.0267 120.202 12 120.709 12H120.749V22ZM123.069 18.84C123.962 18.84 124.642 18.84 125.109 18.84C125.576 18.84 125.816 18.8467 125.829 18.86C125.842 18.86 125.862 18.8667 125.889 18.88C125.929 18.88 125.956 18.8867 125.969 18.9C125.982 18.9133 125.996 18.9333 126.009 18.96C126.022 18.9733 126.029 19 126.029 19.04C126.056 19.1333 126.069 19.2067 126.069 19.26V19.86C126.069 21.2867 125.342 22 123.889 22H121.369V20.5H122.449C122.729 20.5 122.902 20.46 122.969 20.38C123.036 20.2867 123.069 20.1267 123.069 19.9V18.84ZM121.369 12H123.889C125.342 12 126.069 12.7133 126.069 14.14V15.5C125.176 15.5 124.496 15.5 124.029 15.5C123.562 15.5 123.322 15.5 123.309 15.5C123.296 15.4867 123.269 15.48 123.229 15.48C123.202 15.4667 123.182 15.4533 123.169 15.44C123.156 15.4267 123.142 15.4133 123.129 15.4C123.116 15.3733 123.109 15.3467 123.109 15.32C123.082 15.2133 123.069 15.1333 123.069 15.08V14.1C123.069 13.8733 123.036 13.72 122.969 13.64C122.902 13.5467 122.729 13.5 122.449 13.5H121.369V12ZM131.582 12H134.382C135.835 12 136.562 12.7133 136.562 14.14V22H134.282C134.069 22 133.895 21.9267 133.762 21.78C133.629 21.6333 133.562 21.44 133.562 21.2V14.1C133.562 13.8867 133.509 13.7333 133.402 13.64C133.309 13.5467 133.089 13.5 132.742 13.5H131.582V12ZM128.082 7.54H129.302C129.889 7.54 130.329 7.68667 130.622 7.98C130.929 8.26 131.082 8.62667 131.082 9.08V22H128.802C128.589 22 128.415 21.9267 128.282 21.78C128.149 21.6333 128.082 21.44 128.082 21.2V7.54ZM138.844 12.02H140.064C140.65 12.02 141.09 12.1667 141.384 12.46C141.69 12.74 141.844 13.1067 141.844 13.56V22H139.564C139.35 22 139.177 21.9267 139.044 21.78C138.91 21.6333 138.844 21.44 138.844 21.2V12.02ZM138.984 7.76C139.13 7.61333 139.557 7.54 140.264 7.54C140.97 7.54 141.397 7.61333 141.544 7.76C141.69 7.89333 141.764 8.29333 141.764 8.96C141.764 9.62667 141.684 10.0333 141.524 10.18C141.377 10.3267 140.957 10.4 140.264 10.4C139.57 10.4 139.144 10.3267 138.984 10.18C138.837 10.0333 138.764 9.62667 138.764 8.96C138.764 8.29333 138.837 7.89333 138.984 7.76ZM147.637 12H150.437C151.89 12 152.617 12.7133 152.617 14.14V22H150.337C150.123 22 149.95 21.9267 149.817 21.78C149.683 21.6333 149.617 21.44 149.617 21.2V14.1C149.617 13.8867 149.563 13.7333 149.457 13.64C149.363 13.5467 149.143 13.5 148.797 13.5H147.637V12ZM144.137 12H145.357C145.943 12 146.383 12.1467 146.677 12.44C146.983 12.72 147.137 13.0867 147.137 13.54V22H144.857C144.643 22 144.47 21.9267 144.337 21.78C144.203 21.6333 144.137 21.44 144.137 21.2V12ZM157.858 22H157.818C156.498 22 155.685 21.7733 155.378 21.32C155.232 21.1067 155.112 20.9 155.018 20.7C154.938 20.5 154.885 20.1867 154.858 19.76C154.792 18.9867 154.758 18.1267 154.758 17.18C154.758 16.2333 154.765 15.5533 154.778 15.14C154.792 14.7133 154.832 14.2867 154.898 13.86C154.978 13.42 155.078 13.1067 155.198 12.92C155.318 12.72 155.498 12.54 155.738 12.38C155.978 12.22 156.258 12.12 156.578 12.08C156.898 12.0267 157.312 12 157.818 12H157.858V22ZM163.178 18.84V19.86C163.178 21.2867 162.452 22 160.998 22H158.478V20.5H159.558C159.838 20.5 160.012 20.46 160.078 20.38C160.145 20.2867 160.178 20.1267 160.178 19.9V19.26C160.178 19.06 160.198 18.9467 160.238 18.92C160.292 18.8933 160.325 18.88 160.338 18.88C160.352 18.8667 160.385 18.86 160.438 18.86C160.505 18.8467 160.552 18.84 160.578 18.84C161.445 18.84 162.312 18.84 163.178 18.84ZM158.478 12H160.798C161.718 12 162.345 12.18 162.678 12.54C163.012 12.9 163.178 13.4333 163.178 14.14V15.9C163.178 17.1 162.525 17.7 161.218 17.7H158.278V16.2H159.358C159.678 16.2 159.892 16.16 159.998 16.08C160.118 16 160.178 15.8467 160.178 15.62V14.1C160.178 13.8733 160.145 13.72 160.078 13.64C160.012 13.5467 159.838 13.5 159.558 13.5H158.478V12Z" fill="white"/>
</svg>
