<svg width="24" height="24" viewBox="0 0 24 24" fill="none" xmlns="http://www.w3.org/2000/svg">
<path d="M9.62732 5.42308L10.2037 3.88615C10.3009 3.62593 10.472 3.40211 10.6944 3.24399C10.9169 3.08587 11.1804 3.00082 11.4504 3H12.5496C12.8196 3.00082 13.0831 3.08587 13.3056 3.24399C13.528 3.40211 13.6991 3.62593 13.7963 3.88615L14.3727 5.42308L16.3298 6.58615L17.9116 6.33692C18.175 6.3 18.443 6.34478 18.6817 6.46559C18.9204 6.58639 19.1189 6.77776 19.2521 7.01538L19.7883 7.98462C19.9257 8.22602 19.989 8.50479 19.9698 8.78412C19.9507 9.06345 19.85 9.33023 19.681 9.54923L18.7025 10.8369V13.1631L19.7079 14.4508C19.8768 14.6698 19.9775 14.9365 19.9967 15.2159C20.0158 15.4952 19.9525 15.774 19.8151 16.0154L19.2789 16.9846C19.1458 17.2222 18.9472 17.4136 18.7085 17.5344C18.4699 17.6552 18.2018 17.7 17.9384 17.6631L16.3566 17.4138L14.3995 18.5769L13.8231 20.1138C13.7259 20.3741 13.5548 20.5979 13.3324 20.756C13.1099 20.9141 12.8464 20.9992 12.5764 21H11.4504C11.1804 20.9992 10.9169 20.9141 10.6944 20.756C10.472 20.5979 10.3009 20.3741 10.2037 20.1138L9.62732 18.5769L7.6702 17.4138L6.08841 17.6631C5.82502 17.7 5.55696 17.6552 5.31827 17.5344C5.07958 17.4136 4.88106 17.2222 4.74791 16.9846L4.21171 16.0154C4.07432 15.774 4.01101 15.4952 4.03016 15.2159C4.0493 14.9365 4.15 14.6698 4.31895 14.4508L5.29752 13.1631V10.8369L4.29214 9.54923C4.12319 9.33023 4.02249 9.06345 4.00335 8.78412C3.9842 8.50479 4.04751 8.22602 4.1849 7.98462L4.7211 7.01538C4.85425 6.77776 5.05277 6.58639 5.29146 6.46559C5.53015 6.34478 5.79821 6.3 6.0616 6.33692L7.64339 6.58615L9.62732 5.42308ZM9.31901 12C9.31901 12.5477 9.47624 13.0831 9.77084 13.5385C10.0654 13.9939 10.4841 14.3488 10.974 14.5584C11.4639 14.768 12.003 14.8229 12.523 14.716C13.0431 14.6092 13.5208 14.3454 13.8957 13.9581C14.2707 13.5709 14.526 13.0774 14.6295 12.5403C14.7329 12.0031 14.6798 11.4463 14.4769 10.9403C14.274 10.4343 13.9304 10.0018 13.4895 9.69747C13.0486 9.39318 12.5303 9.23077 12 9.23077C11.289 9.23077 10.607 9.52253 10.1043 10.0419C9.60147 10.5612 9.31901 11.2656 9.31901 12Z" stroke="#052843" stroke-width="2" stroke-linecap="round" stroke-linejoin="round"/>
</svg>
