<svg width="32" height="32" viewBox="0 0 32 32" fill="none" xmlns="http://www.w3.org/2000/svg">
<rect x="2" y="2" width="28" height="28" rx="10" fill="#25262D"/>
<path fill-rule="evenodd" clip-rule="evenodd" d="M20.4716 16.8619C20.7319 17.1223 20.7319 17.5444 20.4716 17.8047L16.4716 21.8047C16.2112 22.0651 15.7891 22.0651 15.5288 21.8047L11.5288 17.8047C11.2684 17.5444 11.2684 17.1223 11.5288 16.8619C11.7891 16.6016 12.2112 16.6016 12.4716 16.8619L15.3335 19.7239L15.3335 10.6667C15.3335 10.2985 15.632 10 16.0002 10C16.3684 10 16.6668 10.2985 16.6668 10.6667L16.6668 19.7239L19.5288 16.8619C19.7891 16.6016 20.2112 16.6016 20.4716 16.8619Z" fill="#7C809D"/>
<rect x="2" y="2" width="28" height="28" rx="10" stroke="#0F1013" stroke-width="4"/>
</svg>
