<svg width="80" height="92" viewBox="0 0 80 92" fill="none" xmlns="http://www.w3.org/2000/svg">
<path fill-rule="evenodd" clip-rule="evenodd" d="M24 4H32.7433L35.9848 1.24304C37.8799 -0.368776 42.1201 -0.368775 44.0152 1.24305L47.2567 4H56C64.8366 4 72 11.1634 72 20C76.4183 20 80 23.5817 80 28H64V20C64 15.5817 60.4183 12 56 12H24C19.5817 12 16 15.5817 16 20V28H0C0 23.5817 3.58172 20 8 20C8 11.1634 15.1634 4 24 4ZM24 76H56C60.4183 76 64 79.5817 64 84V92H80C80 87.5817 76.4183 84 72 84C72 75.1634 64.8366 68 56 68H24C15.1634 68 8 75.1634 8 84C3.58172 84 0 87.5817 0 92H16V84C16 79.5817 19.5817 76 24 76ZM24 52L56 52C60.4183 52 64 48.4183 64 44V36L80 36C80 40.4183 76.4183 44 72 44C72 52.8366 64.8365 60 56 60L47.2969 60L44.0152 62.7911C42.1201 64.403 37.8799 64.403 35.9848 62.7911L32.7031 60L24 60C15.1634 60 8 52.8366 8 44C3.58172 44 -4.76837e-07 40.4183 0 36H16V44C16 48.4183 19.5817 52 24 52ZM28 24C25.7909 24 24 25.7909 24 28V36C24 38.2091 25.7909 40 28 40C30.2091 40 32 38.2091 32 36V28C32 25.7909 30.2091 24 28 24ZM48 28C48 25.7909 49.7909 24 52 24C54.2091 24 56 25.7909 56 28V36C56 38.2091 54.2091 40 52 40C49.7909 40 48 38.2091 48 36V28Z" fill="black"/>
</svg>
